<?xml version="1.0" encoding="UTF-8"?><svg id="test_Image" xmlns="http://www.w3.org/2000/svg" width="288" height="192" viewBox="0 0 288 192"><defs><style>.cls-1{fill:#fff;}</style></defs><path class="cls-1" d="M135.4965,12.6453l.7646,.8741c-1.5784,.2125-2.15,2.4353-4.1103,1.9233l.1005-1.2741,.9578-.5527,2.2874-.9706Z"/><path class="cls-1" d="M224.3778,43.556l-.8065,1.1152-.6636-.4793,.529-.1909-.0224-.167-1.3797,.1517-.3502-1.5879c.9625,.4295,1.7096,.7628,2.4568,1.0961l.2365,.062Z"/><g><path d="M248.209,14.5836h.4246c-.0483-.0625-.097-.1247-.1451-.1874l-.2795,.1874Z"/><path d="M262.0279,140.8288h0c.0181-.0228,.0134-.0169,0,0Z"/><path d="M287.1814,35.8792c-.0781-.1954-.753-.3768-.9858-.2547-1.0785,.5654-1.1051,.1371-.9484-.7798,.1895-1.1092-1.1056-3.0713-2.1634-3.4783-.6691,.5486-.6124,2.0207-2.0046,1.5058-.2834,.5007-.5595,.9885-.8806,1.5557-.8933-.5989-1.3963-1.1924-1.3524-2.2063,.0156-.3595-.3422-.7349-.5295-1.103-.2497,.306-.5607,.5807-.7384,.9233-.75,1.4454-.941,3.2434-2.9858,3.9602,.2776-.8628,.5553-1.7255,.8739-2.7154,0-.7682-.0959-1.7913,.0322-2.7861,.092-.7144,.2858-1.7211,.784-2.0136,.9401-.5519,.9153-1.3384,.9401-2.0931,.0456-1.3899-.1176-2.7854-.1106-4.1782,.003-.5979,.0861-1.2623,.363-1.7747,.3435-.6359,.2016-.9923-.3133-1.3566-.951-.6731-1.7708-1.4369-1.9467-2.6732-.0168-.118-.2382-.2075-.3303-.2824-.2713,.2052-.6073,.579-.7187,.5221-.4117-.2103-.7669-.5444-1.1109-.866-.6041-.5646-1.1736-1.1656-1.7806-1.727-.1923-.1778-.4451-.3104-.6928-.4066-.3786-.1468-.8953-.4477-1.1364-.3103-.2949,.168-.4333,.7087-.5098,1.1123-.051,.2695,.124,.581,.1966,.8691-1.6473,.4093-.4763-2.4342-2.2742-1.7227-.3295-1.1202-.66-2.2437-.9905-3.3671l-.3779,.1016c.0833,1.5281,.1666,3.0562,.2499,4.5843l-.1161,.0119c-.4421-1.7759-.8842-3.5518-1.3263-5.3277l-.3188,.0574-.2969,.5908c-.5773-.0391-1.1244-.0762-1.437-.0974-1.0619-1.8682-2.0614-3.6266-3.061-5.385l-.3318,.1246c-.086,.3727-.172,.7454-.3418,1.4813-.809-.4042-1.4749-.7471-2.1499-1.0716-.9186-.4417-1.8319-.8992-2.7761-1.2807-.212-.0857-.5422,.115-.8179,.1839l.0225,.2347c.5122,.1884,1.0242,.3768,1.6429,.6043-.3216,.1583-.5152,.2536-.7804,.3841,.5118,.4001,.9398,.7348,1.3677,1.0695l-.1875,.3044c-.7764-.3415-2.0724-.5386-2.2188-1.055-.2864-1.0107-1.1242-.7787-1.5731-1.2679,1.9269,2.7668,2.3562,5.9657,3.0796,9.0695-2.0927-2.8231-2.5235-6.7448-6.1595-8.5184,.2364,.9585,.4094,1.8111-.5468,2.4597-.1809,.1227-.284,.5664-.2167,.805,.4209,1.4915,.8927,2.9691,1.364,4.4462,.1929,.6046,.4266,1.1964,.6587,1.8412h-.585c.5821,.7537,1.175,1.4998,1.7259,2.2752,.1526,.2149,.1475,.5396,.2149,.8138-.2899-.0535-.6982-.0041-.851-.1764-1.3676-1.5433-3.1745-2.576-4.6468-4.0092-1.6921-1.6472-3.5581-3.1281-5.4177-4.5954-1.7845-1.4081-3.7341-2.6184-5.4571-4.092-.7948-.6798-1.2449-.6881-1.9011-.0521,.5221,.5578,.976,1.1008,1.4938,1.5756,.3462,.3174,.7804,.5422,1.1808,.8001,.2221,.1431,.5037,.2256,.6745,.4111,.4852,.527,.8685,1.1579,1.3993,1.6294,.9359,.8314,1.9515,1.575,2.9337,2.3555l-.3259,.3826c-1.8195-1.878-4.3824-2.7218-6.2345-4.5623-.1386-.1378-.4743-.1586-.6977-.1192-.4689,.0826-.9241,.2415-1.4522,.3878,1.2302,1.1452,2.4969,2.3244,3.7637,3.5036-1.9998-1.1167-3.8406-2.3884-5.6284-3.7295-2.2058-1.6548-4.1352-3.722-6.9148-4.4966-.3143-.0875-.697,.0655-1.048,.1071,.6037,.6548,1.3505,.9132,1.8078,1.4251,.4688,.5248,.6543,1.2976,1.0833,2.2182-1.0701-.5891-2.0971-1.1545-3.1241-1.7198-.0635,.3188-.0335,.4568,.0527,.5281,.9308,.7702,2.0741,1.3282,2.1758,2.8091,.0162,.2355,.3081,1.5545,1.4221,1.0441,.0161-.0073,.2277,.2562,.2174,.383-.0095,.1176-.2096,.3252-.2989,.3122-.2977-.0434-.637-.0989-.8648-.2725-1.5917-1.2133-3.1398-2.4831-4.7404-3.6844-1.5087-1.1324-3.0646-2.2033-4.5998-3.3013l-.5137,.5692c.9594,.6765,1.9187,1.353,2.8782,2.0295l-.3032,.3409c-1.5577,.0889-2.16-1.5268-3.3821-2.0019-1.2245-.4759-2.5128-.7913-3.7731-1.1771,.3862,.647,.9014,.9642,1.327,1.3728,.2852,.2739,.4432,.6775,.6582,1.023-.472-.0899-.9487-.1616-1.4145-.2763-.303-.0746-.5904-.2118-.8847-.3209l-.1085,.3516,.6636,.1681c-.4465,1.1899-.0121,2.2289,1.0578,2.6748q1.1137,.4641,.6099,1.518c-2.5282-1.6231-4.1961-4.3959-7.1415-5.4909-.1609,.1691-.3218,.3382-.4827,.5074,.8176,.5261,1.6352,1.0523,2.4528,1.5784l-.3174,.3591c-.682-.1787-1.364-.3573-2.046-.5359l-.3356,.4005c.4005,.5769,.801,1.1538,1.1688,1.6837-.2404,.2015-.5557,.4659-.871,.7302,.2689,.2922,.5354,.5866,.8073,.8761,.2993,.3188,.6035,.6331,.9903,1.0382-.3664,.1938-.6199,.3279-.8924,.4721,6.5391,5.653,12.628,11.3947,17.7319,18.0726l-.3262,.3452c-3.2812-3.1734-6.5625-6.3469-9.8437-9.5203l-.2324,.2264c.3251,.423,.6486,.8474,.976,1.2687,.2815,.3624,.5888,.7071,.8454,1.0856,.2456,.3622,.4405,.7579,.6564,1.1367-1.379-.3404-2.5088-.6194-3.6387-.8984l-.1698,.3792c3.0223,4.5097,7.254,7.9927,10.6494,12.2225l-.9951-.6008c.2588,.5515,.6216,.9402,.9975,1.3163,1.7234,1.7241,3.4587,3.4367,5.165,5.1772,.2026,.2067,.8415,.67-.1351,.7475-.2817,.386-.5634,.772-.8469,1.1605l-.6969-.4988,.5555-.1986-.0235-.1738c-.4508,.0491-.9016,.0982-1.449,.1578-.097-.4359-.1964-.8824-.3677-1.6524,1.0108,.447,1.7954,.7938,2.5801,1.1407-.9608-.7588-1.976-1.4619-2.8587-2.3015-.4015-.3819-.4175-1.1649-.8226-1.5381-1.0682-.9841-2.1482-2.0453-3.4214-2.6974-1.3395-.686-2.8848-1.1752-4.3823-1.3181-2.5634-.2447-5.1613-.228-7.7411-.1687-1.1909,.0274-2.6777-.4198-3.2737,1.2389-.4702-.5152-.8657-.9485-1.3019-1.4262,1.2416-.7152,2.5226-1.407,3.754-2.1765,1.0453-.6533,.8438-2.7614-.2739-3.283-1.5491-.7229-1.5993-.9074-.5596-2.3111l-2.0231-.6292-.0996-.4534c1.3336-.8383,2.6671-1.6765,4.0007-2.5149l.0126-.4092c-1.0087-.2414-2.0094-.5258-3.0285-.7116-.9239-.1685-1.8677-.2296-2.9455-.3546,.5805-.6752,.9915-1.1532,1.4015-1.6301q-.7372-.5004-.3019-2.2381c-.4104-.0845-.8181-.1872-1.2319-.2495-.745-.1122-1.4927-.2101-2.2423-.2822-.0701-.0067-.144,.2339-.2474,.3248-.5378,.4727-1.0857,.9341-1.63,1.3994-.1232-.1375-.2463-.2751-.3695-.4126,.3266-.1414,.6532-.2828,.9797-.4243l-.2505-.3324c-.4904,.1573-.9808,.3146-1.5672,.5027-.056-1.8623,1.8896-.2361,2.172-1.2997-.1674-.3548-.4979-.7261-.4343-1.0113,.0665-.2978,.5124-.5126,.8702-.8333-.4418-.2818-.8176-.5214-1.2274-.7827,.9465-.2744,1.8739-.5434,3.186-.9239-.5359-.439-.8037-.6584-.9907-.8115-.2877,.3658-.4568,.7936-.704,.8438-.3488,.0707-.9405-.0119-1.1055-.2491-.7423-1.0669-1.8455-1.156-3.0966-1.4111,.2867,.4293,.4703,.7042,.6914,1.0352-.6611,.099-1.219,.2323-1.779,.2414-.2179,.0036-.4405-.2729-.6609-.4218,.176-.1761,.3231-.4052,.5338-.5179,.5059-.2708,1.0415-.487,1.4701-.6821-.6357-.1417-1.2066-.2855-1.7848-.3887-.1946-.0347-.4359-.0218-.6084,.0634-1.4629,.7218-2.9951,1.3442-3.9034,2.8377-.1424,.2341-.6872,.507-.8291,.4191-1.2383-.7672-1.6706,.4132-2.4167,.8785-.719,.4484-1.4986,.8051-2.265,1.1748-1.3371,.6451-3.1243,.9544-3.8895,2.0013-.6218,.8505-1.1827,1.3634-2.075,1.8254l-.0567-.789c-1.3651,.5986-2.6259,1.1567-3.891,1.7051-2.0414,.885-4.1473,1.6485-6.1109,2.6783-1.8251,.9571-3.5592,1.897-5.6928,2.18-2.5121,.3331-4.9735,1.0703-7.4422,1.6895-6.6525,1.6687-13.2963,3.3717-19.9465,5.0498-.8343,.2105-1.6863,.3529-2.7242,.5668,.4151-.7488,.726-1.3097,1.0369-1.8706,.4652-.3173,.8506-.7206,1.2322-1.1273,.3288-.3503,.605-.7704,.9882-1.0454,1.4943-1.0725,3.0218-2.0996,4.6023-3.1886-.2347-.1895-.4039-.3262-.5032-.4064,.8202-.6376,1.6376-1.2729,2.455-1.9082l-.1767-.0784c.1011-.2442,.1713-.5466,.352-.6405,1.3844-.7189,2.809-1.3614,4.2011-2.0662,.8926-.4519,1.752-.9681,2.8243-1.5658l-1.0267-.2219c1.0848-.4243,1.8138-1.813,2.9809-.4788-1.0342,.7077-2.07,1.4161-3.1059,2.1245-1.5059,.5132-2.7965,1.5898-3.2809,2.8724,1.8329-.6176,3.15-1.7256,4.4032-2.9288,.0238-.0229-.0503-.1458-.0786-.222,2.789-1.6194,5.5602-3.2704,8.383-4.8298,.5273-.2913,1.263-.2074,1.9-.3119,.3751-.0615,.7442-.1582,1.1178-.2302,1.1083-.2136,2.04-1.0468,3.3193-.756,.5216,.1185,1.3954-.0664,1.6828-.437,.4358-.562,.6959-.8007,1.3706-.4606,.1943,.0979,.628,.0135,.775-.1465,.2162-.2355,.3884-.6205,.3702-.9298-.0238-.4049-.2513-.7981-.4845-1.4615,.0517,.0208-.2449-.0989-.6729-.2717,.3549-.12,.578-.1955,.8924-.3018l-.6376-.5588,.6154-.3763c-.2913-.3745-.5757-.7401-.9438-1.2134-.2106,.2494-.4263,.5048-.4138,.4901-1.3322-.1768-2.4975-.3315-3.6629-.4861l.0495-.4191h4.8595c-1.082-.6412-1.989-1.1788-2.9747-1.7629,.7447-.1117,1.3437-.2017,1.9427-.2916-.7878-.9257,.6398-.6724,.7063-1.1565h-3.0412l.7359-1.3787c.4891,1.0923,.9151,1.2304,2.016,.6164l-.9437-.1629c.4044-.7803,.3215-1.1176-.5599-.8202-.1841-.2816-.425-.8282-.5432-.8033-1.0365,.2182-1.6103-.5369-2.3155-.9775-.364,.3169-.7161,.6235-1.0678,.9291,.1436,.0478,.2868,.0965,.43,.1453-2.1338-.0283-4.2889-.5203-6.0526,1.2012-.1441,.1406-.8394,.0391-.8703-.0667-.2737-.9368-.7247-.1771-1.0242-.095-.3256,.0894-.5992,.3698-.8912,.573-.6707,.4666-1.3476,.9254-2.0028,1.4124-.2089,.1554-.3213,.4529-.5405,.577-.8335,.4717-1.6843,.9159-2.5476,1.3318-.2339,.1127-.5344,.0899-1.012,.1596,.4689-.55,.7478-.8773,1.1621-1.3632-2.6515,.1948-3.6401,.8615-3.2536,2.0974-.9444-.3224-1.6645-.2967-1.652,.956,.0013,.1369-.3831,.3294-.6187,.4078-1.1205,.3732-2.2987,.6143-3.3638,1.1008-.8911,.407-1.6498,.5297-2.5999-.0668,.3715-.3305,.6636-.5905,.9557-.8505-.4505-.1773-.7829-.1293-1.0874-.0109-.7964,.3096-1.5807,.6498-2.3698,.9779,.2451,.2776,.4902,.5552,.803,.9097-1.6576,.2211-2.2579,2.5343-4.3166,2.0015,.0342-.4292,.0692-.8695,.1055-1.3259,.3069-.1754,.6564-.3753,1.0059-.5752-1.2024,.2739-2.4049,.5479-3.6073,.8219l.0726,.3235,.8488,.2855c-.9427,.4148-1.7128,.7247-2.4558,1.0888-.6921,.3392-1.3554,.7359-2.0314,1.1073l.1757,.2818c.3546-.1841,.7092-.3681,1.0991-.5706l.1204,.6118c.5009-.2204,.966-.425,1.4311-.6296l.1126,.2337c-1.494,.8857-2.988,1.7714-4.4821,2.6572l-.1136-.1646c.276-.2109,.552-.4219,.8515-.6509l-.6912-.5321c-.7798,.2612-1.4474,.4238-2.0603,.7037-1.0699,.4886-1.8349-.2936-2.7132-.5673-3.2064-.9994-6.3975-2.0464-9.6023-3.0509-1.977-.6197-3.961-1.22-5.9551-1.7828-1.7507-.4941-3.5315-.8852-5.2778-1.3931-1.6829-.4894-3.32-1.1384-5.0111-1.5944-2.4131-.6507-4.859-1.1819-7.2875-1.7775-5.1934-1.2738-10.36-2.7216-16.0515-2.3544,.5065,.5676,.8804,.9866,1.4534,1.6288-1.6516-.353-3.0225-.6461-4.6735-.999,1.2351,1.9647,3.1564,1.9901,4.6817,2.7742-1.0731-.1263-2.1073-.377-3.143-.6216-1.5165-.358-1.6079-.2973-1.9056,1.2629,.8182,.2485,1.6427,.499,2.7824,.8452-.5209,.0604-.7236,.1308-.907,.0972-.919-.1681-1.8189-.4083-1.3027,1.1263,.0854,.2539-.2925,.8583-.6011,1.0075-.9617,.4651-1.9851,.7346-3.0882,.3538-.2307-.0796-.5688,.1455-1.0724,.2933,.5648,.593,.9621,1.0101,1.5781,1.657-1.4097-.319-1.9225,.2535-2.0869,1.3214l.8607,.697c-.2847,.3462-.539,.6554-.7817,.9505,.3264,.2997,.6159,.5657,1.02,.9368-1.7273,.6388-3.2921,1.2175-4.8569,1.7962l-.1516-.347c1.0787-.5514,2.1575-1.1028,3.2361-1.6543l-.1902-.4436c-.6727,.1474-1.3454,.2948-2.0182,.4422l-.1201-.2624c.5687-.3666,1.1374-.7332,1.7061-1.0999l-.18-.279c-1.2981,.4047-2.6442,.7023-3.8804,1.2449-1.1851,.5201-2.4479,.7587-3.6435,1.4283-1.1767,.6592-2.7429,1.6174-4.4416,1.2459-.0908-.0198-.2742,.3747-.4143,.5765-.0642,.0925-.1281,.1852-.1961,.2835-.3306-.1291-.6274-.245-1.0008-.3908-.0661,.3916-.1174,.6956-.1373,.8132-4.3248,1.46-8.5016,2.8701-12.6785,4.2802l-.1525-.3939c2.772-1.0874,5.544-2.1749,8.4705-3.3229-2.1003-.9404-3.5806-.6715-3.9386,.2706-1.0373,.1662-1.8642,.2945-2.6895,.4318-.9481,.1578-1.8948,.3235-2.8422,.4857l-.0788-.3073c1.8182-.7198,3.6364-1.4396,5.4546-2.1593l-.1035-.2671c-1.2676,.3526-2.5351,.7052-3.8027,1.0578l-.0539-.1842c.3399-.2983,.6798-.5965,1.0198-.8947-1.2419,.1002-2.3375,.353-3.4246,.6377-1.7696,.4636-3.344,1.7401-5.3459,1.2485-.1001-.0246-.2293,.0937-.3506,.1228-5.0142,1.2013-10.0253,2.415-15.0462,3.5881-1.251,.2923-2.5335,.4523-3.44,.6101-.3979,.7271-.6734,1.1774-.896,1.652-.2175,.4637-.3809,.9522-.6002,1.5118,.7605,.063,1.2114,.1004,1.6806,.1393-.4906,.393-.9439,.7561-1.4243,1.141,1.5674,1.8162,3.3574,1.4317,5.1642,1.0285-.707,.4789-1.414,.9577-2.121,1.4366l.0783,.1958c1.2937-.159,2.5874-.318,3.9649-.4872-.0436,.9747,.5543,1.0641,1.3735,.9652,1.4749-.1781,2.9569-.3316,4.44-.3856,.3408-.0124,.698,.42,1.0476,.6477l-.2328,.3542-1.0369-.2652c-.2117,.3803-.4029,.7237-.5941,1.0671l-.2259-.3109c-.8738,.477-2.0093,.7552-2.5659,1.4731-1.096,1.4135-2.4644,2.097-3.7071,2.2963-.4639,1.1954-.8368,2.1558-1.2112,3.1204,.3531,.1306,.638,.236,.9305,.3443q-.743,1.4936,2.3036,2.284c-.9014,1.5126-.2095,2.6001,1.653,2.7399,.4938,.0371,.9617,.4128,1.2877,.5626-.1616,1.229-2.006,2.0042-.2213,3.1158,.0197,.0123-.0334,.1529-.0642,.229-.4942,1.2184,.2631,1.7077,1.2835,2.0402-.2907,.3571-.5463,.6712-1.0007,1.2293,1.0919,.1933,1.9873,.3517,3.0842,.5458-.4099,.4157-.7512,.7431-1.0699,1.0909-.2743,.2995-.7823,.663-.7398,.9278,.238,1.4814-1.4102,1.7615-1.8362,2.9616-.4288,1.2081-2.133,1.979-3.2919,2.9251-1.0605,.8656-2.1392,1.7094-3.231,2.5795,1.316,1.4635-1.2994,2.0252-.7323,3.3424,.4148-.0812,.791-.1547,1.4607-.2857-.5615,.7554-.9482,1.2756-1.4283,1.9215,.6996,.4365,1.3406,.8365,1.9383,1.2095-.2301,.3343-.4656,.6764-.7011,1.0186l.2347,.2079c.539-.4042,1.0775-.8089,1.617-1.2124,.7004-.5237,1.1362-.6622,1.2859,.4992,.0496,.3844,.7709,.8131,1.2681,.9819,.7665,.2603,1.6146,.2771,2.4042,.4854,.1663,.0439,.3334,.4733,.3243,.7186-.0771,2.0736-1.3165,3.581-2.3644,4.8505,.0605,.6259,.1004,1.0381,.1485,1.535,1.6886,.3368,2.4606-1.4535,3.9732-1.8177-.0731,.338-.1132,.5233-.1363,.6301,1.1923-.1033,2.4046-.2083,3.6167-.3133,.0133,.1214,.0578,.2834,.0077,.3207-1.1438,.8492-2.2892,1.6974-3.4601,2.5094-.5987,.4152-1.2476,.7594-2.0762,1.2572h1.5393l.5766-.2583,.0538,.0944-.4332,.3164c-.1038,.4812-.2076,.9623-.2942,1.3636-.4584-.2353-.6659-.4365-.8662-.4296-1.7381,.0598-2.6047,1.0803-2.9299,2.6837-.1424-.3292-.2847-.6584-.5576-1.2895-.4392,.7431-.7114,1.3553-1.1179,1.8623-1.1287,1.4077-2.3136,2.7712-3.4752,4.1531-.1469,.1747-.3731,.3366-.4156,.5353-.1785,.8329-.301,1.6775-.403,2.2768,.3478,.2126,.9485,.3719,1.1044,.7241,.2336,.5276,.1548,1.1907,.2089,1.7961l.2709,.2962c-.6762,.2182-1.3594,.418-2.0243,.6661-.1909,.0713-.3287,.282-.4909,.4288,.1684,.1715,.3092,.3991,.5136,.4973,.1733,.0833,.42,.0172,.6342,.0172-.5473,.3323-1.1243,.3394-1.6864,.4337-.2975,.05-.5689,.2519-.8521,.3852,.1753,.2431,.3115,.6515,.5323,.7027,1.5463,.3586,1.1422,1.9557,1.7994,2.8793,.5045,.7091,.5823,1.7587,1.3894,2.466,.7605,.6665,1.4188,1.4853,1.9785,2.3302,1.0828,1.6346,2.0819,3.3248,3.0707,5.0177,.1568,.2685,.2215,.7471,.0848,.9991-.624,1.1508-1.5118,2.1907-1.9623,3.3959-.4058,1.0858-.928,1.0719-1.6213,.7135-.5883,.5019-1.0816,.9228-1.575,1.3437l.1477,.3633,2.1472-.5639c.5818,1.1264-.2189,2.3397-1.7311,2.3405-1.7664,.001-2.1028,.467-1.4356,2.2085-.7066,.4083-1.4354,.8294-2.4772,1.4314-.1985,.804-.7287,1.8013,.0088,3.3194,.7826,1.6107,1.3891,3.3462,2.3435,4.896,1.0278,1.6688,2.1587,3.2751,3.2147,4.9274,.2019,.3159,.2647,.7189,.4959,1.3796-.5424-.3316-.7289-.5244-.9393-.5545-.2693-.0385-.6173,.1739-.8285,.0711-1.617-.7877-2.1124-.9351-3.2853-.6796-.2747,.0598-.5019,.3333-.751,.5084,.181,.2462,.3129,.6226,.5532,.7111,.4848,.1787,1.0429,.154,1.5429,.304,.3421,.1026,.6372,.3589,1.142,.6584-1.1588,.605-1.9457,1.0158-3.0837,1.6099-.4798,.5014-.3479,1.4955-.2451,2.5182,.0478,.4761-.1543,.9768-.2431,1.4664l-.2526-.0297c-.5396-1.2708-1.0791-2.5416-1.6307-3.8409-1.3774,.133-1.5519,.5159-.8898,1.7037-.1682,.6469-.5467,1.3139-.36,1.5586,.3288,.4309,1.0026,.6037,1.7623,1.0068-1.1353,.4093-2.2449,.8094-3.3783,1.218,.0261,.4572-.1616,1.2249,.1427,1.6346,.5825,.7845,1.4448,1.3653,2.3727,2.1927v-1.4463c1.1929-.0676,1.9248,.3074,2.3658,1.4276,.7424,1.8856,1.682,2.2443,3.5215,1.7309,.3921-.1094,.9619,.1268,1.3584,.3575,2.3005,1.3388,4.6297,2.6412,6.841,4.1149,2.4292,1.619,4.7483,3.4007,7.0988,5.1337,.4885,.3602,.904,.8172,1.3853,1.2593-1.7638,1.1156-3.4344,2.1283-5.0585,3.2094-2.8479,1.8957-5.7187,3.764-8.4796,5.7785-1.723,1.2572-3.255,2.7695-4.8858,4.1522-1.2393,1.0507-1.8146,3.2879-1.1972,4.7655,1.5815-1.2237,2.8309-.7335,3.3228,1.2915,.6891-.076,1.3792-.1521,1.9774-.2181,.9205,1.161-.317,1.2195-.7937,1.6947,.5449,1.0782,1.5525,2.07,.5752,3.3663-.0744,.0986,.0983,.5218,.2596,.6109,.1506,.0833,.493-.0115,.6564-.143,.4887-.3935,.9311-.8434,1.5526-1.421,.0325,.4578,.0315,.6192,.0576,.7762,.0619,.3734,.1365,.7448,.206,1.117,.2693-.2985,.5322-.603,.8095-.894,.4723-.4955,.9919-1.4267,1.4243-1.3904,1.3517,.1136,2.0176-.7549,2.9119-1.401,3.0096-2.1739,6.0545-4.3005,9.1064-6.4163,.7789-.54,1.6334-.9732,2.446-1.4513,.36,.4054,.6272,.7062,.8748,.985,1.0027-1.0643,1.9427-2.1044,2.9302-3.0982,.9451-.9512,2.1629-1.3844,3.6787-1.508,.2729,.2062,.7382,.5559,1.2015,.9083,1.3587,1.0333,2.7011,2.089,4.0888,3.0828,.2615,.1872,.7022,.171,1.06,.1702,.2429-.0006,.5678-.2744,.7127-.1886,.4153,.2456,.7575,.6122,1.2827,1.0638l-1.3676-.1097c.0969,.2231,.1137,.3716,.1972,.4375,1.5515,1.2244,3.0665,2.5019,4.6917,3.6225,.5963,.4112,1.7968,.8493,2.1311,.5736,.8445-.6966,1.1471,.1096,1.7004,.2009,.9178,.1516,1.8796,.0413,2.8229,.0413v-.3519c-.4198-.0654-.8396-.1308-1.3328-.2076,.0782-.2149,.1037-.4632,.1856-.483,1.1043-.267,2.2364-.7606,3.3214-.6782,1.2917,.0981,1.3467-.5861,1.3032-1.198-.392-.2962-.6293-.7019-.8717-1.1045-.2409-.4001-.4362-.8435-.7487-1.1794-.2116-.2274-.5913-.3018-1.0285-.507,.7043-.5822,1.009-.8342,1.2543-1.0369,.8688,.7782,1.6466,1.4981,2.4571,2.18,.1495,.1259,.4552,.174,.6429,.1149,.1244-.0391,.2793-.3766,.2282-.5064-.4307-1.0939-.861-2.1925-1.3835-3.2449-.3411-.6872-.8353-1.3001-1.3415-2.0686,.786-.2005,1.4079-.3591,2.0279-.5172-.2102-1.4726,.2381-1.9353,1.7852-1.5019,.7462,.209,1.362,.8606,2.0507,1.2901,.316,.197,.6655,.3415,.9998,.5098,.0397-.36,.2088-.7669,.096-1.0716-.4054-1.0955-.906-2.1565-1.3707-3.2305,1.2878,1.0612,2.5167,2.1441,3.4121,3.4509,1.0649,1.5538,2.4867,2.1853,3.991,2.4201,.2731-.8443,.3533-1.6633,.7843-2.2131,.2624-.3348,1.0653-.2546,1.8426-.4021v-1.0782c.6194,.2135,1.0996,.4623,1.6049,.5318,.6215,.0854,1.3773,.2184,1.8559-.0507,.2977-.1675,.1898-1.0416,.264-1.5985l-.2326-.3822c.6259-.0248,1.2523-.0783,1.8775-.066,.581,.0114,1.1606,.093,1.7408,.1437l.121-.4477c-.5591-.6206-1.1183-1.2411-1.9359-2.1485h2.7529l-.5786-1.7977c1.7284,.1238,3.2253,.2311,4.7221,.3383l.0126,.2293c-.2781,.1327-.5561,.2654-1.118,.5335,.8425,.1595,1.3672,.2762,1.8977,.3542,.4925,.0724,1.0512-.022,1.476,.1765,1.3095,.6122,2.492,.8536,3.7251-.2296,.6868-.6033,1.5741-.983,2.3712-1.4635-1.4129,1.4813-3.471,2.1329-4.5851,3.9338,1.1965-.6688,2.3931-1.3377,3.5106-1.9624,.2333,.4102,.4607,.8101,.6921,1.2169l-.9185,.6627c.6081,1.1659-.5505,1.9669-.4475,3.0293,.4803-.3732,.8664-.6731,1.2526-.9731l.1363,.1397c-.403,.7974-.806,1.5948-1.194,2.3623q1.4806,1.393,3.9656-.3512c1.3847,.2853,2.5765,.5309,4.2083,.8671l-1.5498,1.0436c.3096,.4542,.512,.7511,.7586,1.1129,.0795-1.1916,.9394-.8203,1.4859-.8085,1.4685,.0317,2.9334,.2273,4.4019,.2585,2.254,.0478,4.5097,.0126,7.181,.0126-1.6762,.9115-3.0357,1.6509-4.4586,2.4246,.7851,.8272,2.206-.849,2.9667,.7198-1.292,.6281-2.5735,1.2511-4.1023,1.9943,1.0284,.1846,1.8506,.3322,2.7151,.4874q-1.0463,2.759-.7946,3.4602c.7802,.4377,1.5553,.6088,1.6946,1.001,.3899,1.0979,1.2226,1.2786,2.0679,1.4856,.1633-.7342,.312-1.4025,.4606-2.0708l.3043,.0965,.4749,1.0315c.3453-.4745,.6907-.9489,1.0055-1.3814,.8748,.3356,1.7086,.6555,2.5038,.9606-.1415,1.1364-.36,2.2287-.3908,3.3262-.0306,1.0918-.192,2.2884,.8407,3.0888,.6551-1.7548,1.2847-3.4411,1.9306-5.1713-.4136-.0908-.812-.1783-1.262-.2771,.8509-.5257,1.5905-.9826,2.33-1.4394-.9475-.2873-1.7444-.2252-2.5222-.3191-.2965-.0358-.5489-.4296-.8215-.6602,.2493-.2187,.4634-.5358,.7544-.6378,.8475-.2968,1.7257-.5075,2.5919-.7521l-.0898-.4022c-.5048,.0456-1.0222,.1775-1.5105,.1084-.3661-.0519-.6948-.3624-1.0403-.5578,.335-.2018,.6493-.4598,1.0106-.5909,.4323-.1568,.9048-.2052,1.3599-.3006l-.0816-.2669-.7079-.1581c1.0496-.5152,1.9625-.7085,3.1859-.4649,1.3499,.2689,2.9048-.3018,4.3375-.6425,3.2834-.7808,6.5441-1.6547,9.8194-2.47,1.8601-.463,3.7306-.8851,5.5965-1.3256l.1085,.3459c-.2881,.136-.5632,.3213-.8666,.3993-1.1699,.3007-2.3901,.459-3.5123,.8784-1.0312,.3853-2.35,.3465-2.8743,1.7274-.1343,.3537-.9082,.4694-1.3881,.6945l.1404,.3178c.9865,.1035,1.9755,.3047,2.9586,.2793,.771-.02,1.5359-.3148,2.301-.4975,1.7123-.4088,3.4443-.7539,5.1285-1.2559,1.6922-.5044,3.3136-1.2436,5.0085-1.7369,1.3645-.3972,2.8052-.5307,4.1885-.8746,1.2028-.299,2.352-.8246,3.5618-1.076,1.4581-.3032,2.9551-.4226,4.4353-.6215l.0708,.3912c-.5752,.2762-1.1504,.5525-1.9319,.9277,1.8979,.7147,3.9415,.1664,4.6703-1.0979,.6222,.6973,.5903,1.2812-.2836,1.6343-1.4131,.5709-2.869,1.039-4.2756,1.6239-.3063,.1273-.4811,.5645-.7164,.859l.2432,.2492,10.929-2.4733,.0956,.2851c-1.2862,.4998-2.5724,.9995-4.0291,1.5656,1.5796,.4868,2.7905,.8734,4.0116,1.2256,.2615,.0754,.5746,.0861,.8381,.0222,.6441-.1561,1.2715-.3789,1.9085-.565,4.3952-1.2838,8.7756-2.6215,13.1953-3.8166,1.5427-.4172,3.1825-.4829,4.7792-.7007,.1136-.0155,.2476,.0154,.3541,.0636,.9548,.4311,1.8771,.6125,2.9962,.5145,1.9228-.1684,3.8802,.0492,5.8229,.1128,.0933,.003,.1841,.0837,.4214,.1987-.4534,.1037-.7459,.1705-1.0383,.2374,.695,.1434,1.4021,.2716,2.0295,.1054,.5679-.1505,1.0369-.6454,1.5823-.9259,.0751-.0386,.3397,.2838,.6673,.5716-.5834,.0919-.9164,.1443-1.2494,.1967l.019,.2925c3.4472,.0762,6.8943,.1525,10.3415,.2288l.0029,.6158h-4.9225c.0813,.3649,.2039,.4767,.3318,.483,2.2,.109,4.4069,.1338,6.6,.3196,3.7245,.3155,7.4392,.7429,11.1618,1.0812,.3134,.0285,.6563-.2616,.7707-.3109,.3036,.1587,.4868,.3238,.6879,.3491,2.8149,.3548,5.6342,.6749,8.4482,1.0358,2.2122,.2837,4.4205,.5993,6.6269,.9247,1.6432,.2424,3.3911,1.0059,4.8938,.6693,2.0515-.4595,3.7871,.3892,5.6724,.4762,1.6639,.0768,3.3148,.4283,4.9714,.6585l.0663-.2966-3.0296-.6261,.0282-.2182c2.5885,.136,5.1771,.2722,7.7656,.4082l.0432-.3383c-2.5647-.5988-5.1295-1.1976-7.6943-1.7965l.0542-.266c2.6841,.4112,5.3682,.8224,8.0523,1.2335l.0774-.3147c-1.5991-.4869-3.1982-.9738-4.7973-1.4607l.0664-.3155c1.7771,.4324,3.5611,.6579,5.3519,.6701l.0447-.4209c-.8116-.2389-1.6233-.4778-2.4349-.7168l.0456-.3686c3.4182-.1686,6.8364-.3371,10.2547-.5056l.0062-.2688h-3.9694l-.049-.4051c.2336-.0394,.469-.1196,.7003-.1094,.3997,.0177,.8002,.1519,1.1944,.1305,1.3213-.0717,2.6406-.1829,3.9595-.2937,1.2788-.1073,2.6246-.0287,3.811-.419,.8546-.2812,1.5491-.8327,2.272-.3028,.9482-.9137,1.8123-1.7462,2.9234-2.8169-1.2055-.2978-2.3504-.5807-3.4282-.8471,.4598-.287,1.0079-.6291,1.675-1.0455l-1.3586-.6796c-.8116,.2041-1.4554,.3661-2.2157,.5574,.2494-.783,.4047-1.2703,.5599-1.7576-1.1622,.7668-5.0929,.6239-6.6191-.3343,.1448-.1976,.2468-.4542,.437-.5767,.9638-.6202,1.0358-1.3073,.2534-2.1257-.564-.5899-1.1053-1.2011-1.5845-1.7239,.5454-.4404,.9356-.7556,1.3259-1.0707l-.1436-.4109c-2.8725-.4282-5.7348-1.1181-8.6198-1.2284-5.4867-.2096-10.9863-.0842-16.4805-.1134-.2965-.0015-.5921-.146-.6009-.1482,1.8948-.3396,3.9827-.6969,6.063-1.0939,1.0018-.1912,1.9851-.4753,2.9836-.6856,1.9874-.4186,3.9809-.8087,5.9692-1.223,1.4043-.2927,2.8039-.6087,4.2067-.909,.7632-.1633,1.547-.2583,2.2881-.4893,.7064-.2202,1.4763-.9533,2.0299-.7989,1.3278,.3702,2.2926-.4591,3.3607-.7359,2.1476-.5566,4.1855-1.5324,6.2607-2.355,.4615-.1829,1.1439-.3448,1.2878-.693,.5082-1.2312,1.6459-1.7601,2.495-2.8172-1.675,.3663-3.35,.7326-5.3672,1.1737,.7913-.5136,1.2523-.813,1.7134-1.1123l-.1355-.222c-1.8512,.4726-3.7024,.9452-5.5537,1.4177,1.2983-.7338,2.6802-1.1719,4.0436-1.6608,1.2655-.4538,2.5112-.9617,3.7656-1.4458l-.1674-.5516c-2.6584,.3262-5.3168,.6525-8.2503,1.0125,2.1162-.8045,3.9928-1.5178,6.0747-2.3092-2.2933,.104-4.3326,.2135-6.3732,.2832-1.5128,.0516-3.0143-.1749-4.4766,.6463-.4659,.2616-1.4639-.2463-1.7139-1.0878,2.1089-.4508,4.1365-.8844,6.1642-1.3179l-.0274-.2274c-1.0559-.1322-2.1117-.2643-3.2802-.4105-.7041,.8051-1.8164,.3307-2.9076,.3256,.3351-1.4208,1.2829-1.0656,2.1605-1.0824-.7256-.2012-1.4501-.2493-2.1648-.1876-.718,.0619-1.4265,.2331-2.1391,.3564l-.0685-.3336c1.5064-.377,3.0127-.7539,4.5192-1.1309l-.0761-.3605c-3.1078,.3875-6.2158,.7751-9.3237,1.1626l-.0048-.0958c.5285-.1714,1.057-.3428,1.5854-.5142l-.025-.2076c-.3004-.0571-.6009-.1142-.8844-.1681l.2225-.2805c-1.0095-.2957-2.0082-.7472-3.0377-.8317-.6493-.0534-1.3542,.42-2.0138,.7035-.2236,.0961-.385,.3341-.8066,.7185l.3352-1.0416c-.7393,.1837-1.294,.3216-2.1442,.5329,7.9811-24.3274,15.9039-48.4768,23.8757-72.7759,.3543,.4564,.5377,.6926,.7211,.9288,.232-.3396,.464-.6793,.7872-1.1525-.6029-.0487-.9695-.0784-1.6207-.131,1.0348-1.1137,.3462-2.911,2.1537-3.3504-.2673-.3118-.4984-.5815-.8905-1.039l1.3514,.3197,.1148-.292c-.3254-.2369-.6508-.4738-1.0038-.7306,.3533-1.1861,.7009-2.3534,1.0097-3.3902,.4725,.3974,.8297,.6979,1.2769,1.074,.4204-1.5374-.3606-3.1056,1.2144-3.9061-.9812-1.2808,.5901-.8261,.9798-1.3054-.3261-.0999-.5611-.1719-.796-.2439,1.3221,.3661-.8745-2.122,1.0877-1.2333,.1664-.4476,.3962-.8947,.4984-1.3689,.5634-2.6161,1.0647-5.2457,1.651-7.8566,.3126-1.3923,.8197-2.7423,1.119-4.1367,.3313-1.5435-.1422-3.0223-.7091-4.4412ZM146.0342,18.2042c-1.4553,.766-2.7779,1.4622-4.1761,2.1981,.5084-1.1405,3.1734-2.5868,4.1761-2.1981ZM18.8258,86.1091l-.3199-.3051,.3244-.6214c-1.8796,.3312-2.3205,.6451-3.3732,2.4365,.2925,.043,.5597,.0823,.827,.1216l.054,.3428c-.8482,.1521-1.6965,.3043-2.8086,.5038,1.4546-2.1151,3.4561-3.4007,5.5093-4.8319l.1355,.7474c1.2015-.8253,2.3456-1.6113,3.4898-2.3972l.2113,.2346c-1.3499,1.2563-2.6999,2.5126-4.0497,3.7689Zm5.4539-8.762c-.907,.7765-2.013,1.3252-3.1237,2.0319,.4683-.6455,.5256-1.1513-.434-1.125,.3236-1.4132,.9003-1.8627,2.3769-1.8628,.1109,0,.2411-.0222,.3297-.0816,.9045-.6071,1.8023-1.2239,2.7109-1.8442,.2207,1.4946-.9901,2.137-1.8599,2.8816Zm24.1577,29.2201l2.6134-1.6179c-.0577,1.2474-1.5067,2.1186-2.6134,1.6179Zm7.2785-85.5148c1.808-1.0633,3.6922-1.9291,5.764-2.3093-1.6598,1.4469-3.8061,1.6341-5.764,2.3093Zm23.4966,141.0842c-.6015-.5084-.9908-1.6073-.9551-2.4236,.0459-1.05,1.0922-1.8437,2.2598-1.967-.4974,.5871-.7972,.9572-1.1144,1.3122-.7566,.8467-.6734,1.5308,.3447,1.9965,.6382,.2919,1.3501,.4257,2.1149,.6562-.906,.7253-1.9807,.9913-2.6498,.4257Zm9.3901-2.6519c1.2376-.4625,2.2877-.855,3.3562-1.2544-.1826,1.0754-1.2356,1.4946-3.3562,1.2544Zm3.925-2.681c1.0235,.1011,1.6959,.1676,2.3794,.2351-.5275,1.0103-.5764,1.0103-2.3794-.2351Zm17.8008-61.7215c.0559,.2031,.1118,.4062,.1677,.6093l-2.0382,.4325-.1083-.4652c.6596-.1922,1.3192-.3844,1.9787-.5767Zm-10.6541,27.943l-.264-.4316c3.2605-2.6098,6.9155-4.4447,10.977-5.4808l.1463,.2838c-3.6197,1.8762-7.2396,3.7523-10.8593,5.6286Zm4.26,28.8658l-.3374-.5999c2.461-1.3307,4.9219-2.6615,7.3829-3.9922l.1711,.3066c-2.4055,1.4285-4.811,2.857-7.2165,4.2855Zm5.1792-34.8079l-.0793-.4387,4.2432-.6559,.0656,.3668c-1.4098,.2426-2.8197,.4852-4.2295,.7278Zm5.2779,61.0916c-.1661-.1019-.3324-.2038-.4985-.3057l.7942-1.4354,.6925,.4189c-.3293,.4407-.6587,.8815-.9882,1.3222Zm13.6725-162.1734c-1.2383,.0493-1.4632,1.4452-2.259,2.1102-.7357,.6148-1.5716,1.1122-2.3633,1.6613l-.2125-.3024c.9637-1.2631,1.9274-2.5262,2.9053-3.8079l-1.3046,.2427c1.4945-1.4776,3.5551-1.0287,5.3142-1.6563-.4663,.8896-.8383,1.703-2.0801,1.7525Zm4.7715,11.9285l-.298-.0457c.2783-.3764,.5566-.7528,.9405-1.272l-1.6451,.4859-.1527-.3721c.9775-1.3594,2.7227-1.0278,4.2254-1.3735-1.0234,.8591-2.0468,1.7182-3.0701,2.5773Zm3.857-4.0221c-.2958,.0974-.5648,.2748-.8461,.4153l-.1687-.3028c1.3784-.7487,2.7568-1.4973,4.1675-2.2635,.3009,.3543,.5335,.6283,.7662,.9028-1.307,.4139-2.6168,.8196-3.9189,1.2483Zm-4.8844-10.5032c.3937-.197,.6543-1.3437,1.3021-.1526,.0752,.1383,1.0393-.1962,1.5909-.3133,.2308-.049,.4606-.1024,.7452-.0087-.9864,.4826-1.984,.9442-2.9553,1.4548-.7241,.3806-1.0705,.0664-1.3058-.612,.2029-.1212,.4054-.2594,.6229-.3683Zm3.3541,7.7412c-.5744,1.137-1.812,1.6396-3.7775,1.3045,1.4836-.5123,2.639-.9114,3.7775-1.3045Zm4.4791-1.3731c.0859,.1648,.1717,.3295,.2576,.4943-2.4672,2.0378-5.4446,3.1899-8.3219,4.5083-.0948,.0434-.3866-.3345-.6028-.5308,2.9274-1.5104,5.7973-2.9911,8.6672-4.4718Zm36.5853,104.0791c-.0881-1.1513,.194-1.3804,1.9165-1.444-.805,.6065-1.3195,.9941-1.9165,1.444Zm6.7817-107.1297c-1.0389,.7217-2.0778,1.4433-3.3623,2.3356,.1875-1.4516,1.3042-2.2325,3.3623-2.3356Zm-2.3978,103.6486c1.5367-.9318,2.84-1.7221,4.3472-2.6361-.1238,1.2425-2.8576,2.8114-4.3472,2.6361Zm7.7036-99.8134l-.0953-.2837c1.2412-.449,2.4824-.8979,3.7236-1.3469l.119,.3596-3.7473,1.2709Zm36.7195,23.9897c-.0988,.8183-.0394,1.4305-.2899,1.8694-.1037,.1817-.8711-.0076-1.4078-.0313,.5841-.6324,1.0286-1.1137,1.6977-1.8381Zm-2.243,40.8745c.9967-.3773,1.9934-.7547,2.9901-1.1321l.1777,.4713c-1.0127,.3559-2.0253,.7119-3.038,1.0678-.0433-.1356-.0866-.2713-.1298-.4069Zm2.2326,32.3409c0-.5243-.0434-1.0751,.0205-1.6134,.027-.2282,.2345-.5486,.4371-.6238,.9215-.3422,1.8704-.6122,2.8214-.9118,.1309,1.9368-.4443,2.4632-3.279,3.149Zm.2309-4.1046c1.3899-.7065,1.4559-2.8509,3.4967-2.2894-.4142,1.1352-1.9588,2.2167-3.4967,2.2894Zm3.0148-28.3878c-.6418-.1709-.6218-.5758-.1433-.9791l-1.8464,.3222-.054-.3519c1.1729-.4605,2.3457-.921,3.5185-1.3814l.2008,.3295c-.3188,.2473-.6377,.4946-.9565,.7419,.2829-.0291,.5657-.0581,.9728-.1-.3408,.8647-.5547,1.7216-1.6919,1.4188Zm-1.0738-13.4559l-.1297-.3296c1.0279-.4381,2.0557-.8763,3.0836-1.3144,.0656,.1595,.1312,.3189,.1968,.4784-1.0503,.3885-2.1005,.7771-3.1508,1.1656Zm-.6893-23.4195c-.277-.6609-.5848-1.3953-.9381-2.2383,.4821-.0438,.7966-.0723,1.3567-.1231-.407-.4951-.7075-.8606-1.1406-1.3877,.5043-.0908,.8921-.1606,1.21-.2179-.036-.5267-.0715-1.0439-.1075-1.5696,.5317-.088,.9496-.1571,1.3536-.224,1.5311,1.6591,3.0521,3.3074,4.8072,5.2093-2.4216,.3982-4.3332,1.6257-6.5413,.5513Zm56.0466,125.4626c-1.3808,1.3298-2.6299,.2531-3.8518,0h3.8518Zm-2.7995-1.4795l.0099,.3361h-2.9314l-.0033-.3361h2.9248Zm-10.7408-129.6965c.3593-.3698,.7252-.7339,1.0746-1.1127,.2371-.2572,.4509-.5354,.8507-1.015-.1245,1.055-.0735,1.7916-.3317,2.3997-.1717,.4044-.7491,.7466-1.2144,.8809-.2642,.0762-.6682-.3225-1.0094-.5072,.2101-.2152,.4206-.4299,.6302-.6456Zm-22.0572,95.4371c-.6555-.3157-1.3536-.5492-1.8918-.979-.1452-.116,.1949-.8272,.3177-1.2862,1.5482,.6246,1.7764,.9692,1.5741,2.2652Zm3.0591-14.0387c-.6048,2.7349-1.2478,5.462-1.808,8.2057-.1431,.7007-.3602,1.0039-1.1249,.9522-1.8514-.1249-3.7078-.179-5.8111-.2729,.4182-.3864,.6366-.5882,.9256-.8552-1.0351-.5606-.9752-1.3403-.8248-2.3321,.2357-1.554,.1285-3.1562,.2771-4.7277,.0362-.3829,.4252-.9138,.7828-1.0574,2.5887-1.0393,5.2111-1.9967,7.8227-2.9799l.3349,.3098c-.1908,.9193-.3716,1.8408-.5744,2.7575Zm-5.7861-1.3365l-.1153-.2779c2.1318-.8315,4.2636-1.6631,6.3953-2.4947l.1817,.454c-2.1539,.7729-4.3078,1.5458-6.4617,2.3186Zm7.0837-16.0346c.3067-.189,.6134-.3779,1.0233-.6305-.4197,.0192-.7457,.0342-1.0716,.0492l-.1851-.3631c.6903-.3409,1.3806-.6819,2.0709-1.0228l-.8684-.0697c1.1838-2.1412,2.2944-4.15,3.4049-6.1587l.5297,.2111c-.7085,2.0066-1.417,4.0131-2.1255,6.0196,.3369,.7626,.1175,1.2436-.7014,1.5061-.6507,.2086-1.274,.5008-1.9095,.7559l-.1674-.2971Zm23.038-30.6453c-2.2791,7.3608-4.7493,14.6637-7.1437,21.9894-2.0157,6.1668-4.0688,12.3218-6.0592,18.4966-1.8835,5.8429-3.6789,11.7138-5.5716,17.5539-.7187,2.2177-1.6009,4.3835-2.4086,6.5729l-.2596-.0905c1.5846-5.2176,3.1541-10.4399,4.758-15.6517,1.61-5.2312,3.2196-10.4628,4.8935-15.6741,1.6384-5.101,3.4198-10.1573,5.0235-15.2686,1.5429-4.9175,3.2832-9.7698,4.8187-14.6891,1.621-5.193,3.3742-10.346,4.9582-15.5497,1.5537-5.104,2.9671-10.2498,4.4421-15.3773l.3877,.0601c-.132,.872-.1651,1.7723-.4113,2.6116-2.4481,8.3469-4.8548,16.707-7.4276,25.0165Zm7.516-18.6715l-.498-.2326c.2865-.6155,.573-1.2309,.8595-1.8464l.4993,.2592c-.287,.6066-.5739,1.2132-.8609,1.8198Z"/><polygon points="6.9101 59.4036 6.9093 59.4073 6.9122 59.4056 6.9101 59.4036"/><path d="M6.5601,58.6929c-1.9324,1.7463-3.8648,3.4927-5.7972,5.2391l.2195,.2419c.8589-.8534,2.3556-.886,2.8438-2.2536,.0806-.2258,.54-.4369,.8331-.4492,.9935-.0415,2.1857-1.0876,2.2501-2.0638-.0574,.0379-.1134,.0785-.1742,.1101-.0064,.0033-.0645-.0531-.0597-.0725,.0429-.1766,.0945-.3512,.1435-.5263l-.2589-.2257Z"/><path d="M5.5719,154.9296c.1124-.0296,.1773-.2355,.4157-.5863-.722-.9264-1.42-1.8953-2.2107-2.7833-.1912-.2147-.6889-.1621-1.0457-.2324-.0271,.4522-.2572,1.0705-.0438,1.3258,.681,.8145,1.5172,1.5047,2.3192,2.2144,.119,.1054,.3904,.108,.5654,.0619Z"/><path d="M137.7995,8.9005c1.2249-.5371,2.4497-1.0742,3.9814-1.7458-.6279-.0408-.9225-.0599-1.6015-.104,1.0527-.4807,1.7612-.8043,2.4697-1.1279l-.1566-.3002c-1.4632,.5363-2.9263,1.0725-4.3895,1.6088l.0549,.2983c.3566,.0175,.7132,.035,1.0463,.0514-.5168,.3216-1.0453,.6505-1.5737,.9794l.169,.3401Z"/><polygon points="6.9105 59.4038 6.9122 59.4056 6.9131 59.4051 6.9105 59.4038"/><path d="M6.0578,61.5265l.1511,.1456c1.6637-1.4796,3.3275-2.9592,4.9911-4.4389-.6707,.1957-1.2244,.5901-1.8163,.9163-.8084,.4456-1.6457,.8395-2.4707,1.2554l.7898,.3883c-.6027,.635-1.1239,1.184-1.645,1.7332Z"/><path d="M2.5875,139.2502c.0104,.162,.2327,.4525,.34,.4426,.5124-.0471,1.1362-.0359,1.485-.3243,.2581-.2133,.1546-.8552,.2249-1.4055-.8462,.408-1.3007,.6024-1.7266,.8456-.1519,.0868-.3324,.2981-.3233,.4416Z"/><path d="M14.112,54.564c-1.2922,.6759-2.5844,1.3517-3.8766,2.0275l.1928,.3479,3.8961-2.0247-.2124-.3507Z"/><path d="M204.0048,176.6125l.0237,.3067h4.0857l-.0022-.3067h-4.1072Z"/><path d="M105.94,181.7245c.9219-.0426,1.6034-.074,2.4631-.1136-.8905-1.0809-1.3655-1.0579-2.4631,.1136Z"/><path d="M262.743,140.7178c1.2341-.3156,2.4683-.6311,3.7024-.9468l-.0624-.2466c-1.2472,.2367-2.4945,.4734-3.7417,.71l.1017,.4834Z"/><path d="M273.9939,15.1117c.0543-1.2093-1.1821-1.066-1.9078-1.4571,.5115,.6122,1.023,1.2244,1.5345,1.8366l.3732-.3795Z"/></g><path class="cls-1" d="M24.692,82.7569l.5491-.2483,.0512,.0908-.4125,.304-.1833,.0297-.0221-.0224,.0176-.1538Z"/><path class="cls-1" d="M24.6965,82.9332l-.0222-.0225,.0222,.0225Z"/><path class="cls-1" d="M249.6132,138.6927c1.5089-5.0139,3.0033-10.0322,4.5306-15.0405,1.533-5.0269,3.0657-10.0543,4.6596-15.0622,1.5601-4.9018,3.2564-9.7607,4.7834-14.6724,1.4691-4.7255,3.1262-9.3883,4.5883-14.1156,1.5435-4.9902,3.2129-9.942,4.7212-14.9425,1.4794-4.9047,2.8252-9.8496,4.2297-14.7769l.3692,.0578c-.1257,.8379-.1573,1.7031-.3916,2.5095-2.3311,8.021-4.6227,16.0547-7.0726,24.0398-2.1701,7.0734-4.5223,14.0911-6.8023,21.1308-1.9193,5.926-3.8742,11.8407-5.7695,17.7744-1.7935,5.6149-3.5031,11.2565-5.3053,16.8685-.6844,2.1311-1.5244,4.2123-2.2935,6.3163l-.2472-.087Z"/><path class="cls-1" d="M238.5326,131.3694l.8814-.8218c-.9856-.5387-.9286-1.288-.7853-2.2411,.2244-1.4933,.1224-3.0329,.2638-4.5431,.0344-.368,.4049-.8781,.7454-1.0161,2.465-.9987,4.962-1.9187,7.4488-2.8636l.3189,.2977c-.1817,.8834-.3539,1.7689-.5469,2.6499-.5759,2.6281-1.1882,5.2487-1.7216,7.8853-.1362,.6733-.3429,.9647-1.0711,.9151-1.763-.1201-3.5306-.1721-5.5333-.2622Z"/><path class="cls-1" d="M223.7866,46.4989l1.1522-.2094-.1024-1.5083,1.2889-.2153c1.4579,1.5943,2.9062,3.1782,4.5774,5.0058-2.3058,.3827-4.126,1.5622-6.2286,.5298l-.8932-2.1509,1.2918-.1183-1.0862-1.3335Z"/><path class="cls-1" d="M126.1343,22.3066l2.7664-3.6593-1.2423,.2332c1.4231-1.4198,3.3852-.9885,5.0602-1.5916-.444,.8548-.7982,1.6365-1.9806,1.684-1.1791,.0474-1.3933,1.3887-2.151,2.0278-.7006,.5908-1.4965,1.0688-2.2504,1.5964l-.2023-.2906Z"/><path class="cls-1" d="M103.4542,121.4034c3.1047-2.5078,6.5849-4.2711,10.4523-5.2668l.1393,.2727-10.3402,5.4088-.2513-.4147Z"/><path class="cls-1" d="M28.5189,78.8267c.3066-1.3852,.854-1.8217,2.2718-1.8217,.1056,0,.2295-.0213,.3139-.0784,.8613-.5833,1.7162-1.1762,2.5813-1.7721,.2101,1.4363-.9428,2.0535-1.771,2.7691-.8636,.7462-1.9167,1.2735-2.9743,1.9526,.4534-.6307,.5077-1.1256-.4548-1.0821l.0331,.0328Z"/><path class="cls-1" d="M26.9246,84.0816l.1291,.7183,3.323-2.3036,.2013,.2254-3.8562,3.6218-.3045-.2932c.103-.199,.2059-.398,.3085-.5975-1.7894,.3186-2.2091,.6203-3.2115,2.3417l.7874,.1168,.0514,.3294-2.6744,.4841c1.3851-2.0325,3.2909-3.2678,5.246-4.6432Z"/><path class="cls-1" d="M142.0071,23.0721c-2.3492,1.9582-5.1843,3.0654-7.9241,4.3323-.0902,.0417-.3682-.3215-.574-.5101l8.2529-4.2973,.2452,.475Z"/><path class="cls-1" d="M249.8439,104.248l-.8269-.067c1.1273-2.0576,2.1847-3.9879,3.2422-5.9182l.5044,.2029c-.6746,1.9282-1.3493,3.8564-2.0239,5.7846l-.8958-.0023Z"/><path class="cls-1" d="M226.1847,113.7347c.1246,1.8612-.4231,2.367-3.1223,3.0261,0-.5038-.0413-1.0331,.0195-1.5505,.0258-.2193,.2234-.5271,.4162-.5994,.8774-.3289,1.781-.5882,2.6865-.8762Z"/><path class="cls-1" d="M85.4641,155.1832c-.4736,.5642-.7591,.9198-1.0611,1.261-.7204,.8136-.6413,1.471,.3283,1.9186,.6076,.2805,1.2856,.409,2.0138,.6306-.8627,.697-1.886,.9526-2.5231,.4091-.5728-.4886-.9435-1.5446-.9095-2.329,.0437-1.0091,1.04-1.7717,2.1517-1.8903Z"/><path class="cls-1" d="M107.4406,148.9804l7.0299-3.8363,.1629,.2946c-2.2905,1.3727-4.581,2.7454-6.8715,4.1182l-.3213-.5765Z"/><path class="cls-1" d="M134.9977,30.3918l.8955-1.2223-1.5664,.4669-.1454-.3576c.9308-1.3062,2.5925-.9877,4.0234-1.3198l-2.9234,2.4767-.2838-.0439Z"/><path class="cls-1" d="M249.8439,104.248l.8958,.0023c.3208,.7328,.1119,1.195-.6679,1.4473-.6196,.2005-1.2131,.4813-1.8182,.7264l-.1594-.2855,.9743-.6058-1.0204,.0472-.1763-.3489,1.9719-.9829Z"/><path class="cls-1" d="M266.782,42.5665c-.1185,1.0138-.07,1.7217-.3159,2.306-.1635,.3886-.7133,.7174-1.1563,.8465-.2515,.0733-.6363-.3098-.9611-.4874,.2001-.2068,.4005-.4131,.6001-.6204,.3422-.3554,.6905-.7052,1.0232-1.0693,.2258-.2471,.4293-.5145,.8101-.9754Z"/><path class="cls-1" d="M133.71,16.8315c.1932-.1164,.386-.2492,.5931-.3538,.3748-.1893,.6229-1.2913,1.2399-.1466,.0716,.1328,.9896-.1885,1.5148-.301,.2198-.0471,.4386-.0985,.7096-.0084-.9392,.4638-1.8892,.9073-2.8141,1.398-.6895,.3658-1.0194,.0638-1.2434-.5881Z"/><path class="cls-1" d="M180.7726,119.2672l4.1394-2.5332c-.118,1.194-2.721,2.7017-4.1394,2.5332Z"/><path class="cls-1" d="M61.8485,23.8269c1.7216-1.0217,3.5158-1.8538,5.4885-2.2191-1.5805,1.3905-3.6242,1.5703-5.4885,2.2191Z"/><path class="cls-1" d="M223.2823,112.8164c1.3234-.6789,1.3863-2.7396,3.3295-2.2-.3944,1.0908-1.8652,2.1301-3.3295,2.2Z"/><path class="cls-1" d="M179.8543,21.9099c.1786-1.395,1.2419-2.1454,3.2015-2.2444l-3.2015,2.2444Z"/><path class="cls-1" d="M247.502,119.3188c-2.0509,.7427-4.1019,1.4854-6.1528,2.2281l-.1098-.267c2.0298-.7991,4.0597-1.5982,6.0896-2.3974l.173,.4363Z"/><path class="cls-1" d="M242.447,134.1451c1.4742,.6002,1.6914,.9313,1.4988,2.1767-.6242-.3033-1.289-.5278-1.8014-.9408-.1383-.1114,.1855-.795,.3026-1.2359Z"/><path class="cls-1" d="M142.6874,25.3706c-1.2451,.398-2.4929,.788-3.7334,1.2001-.2817,.0936-.5378,.264-.8057,.3991l-.1606-.291,3.9683-2.1751c.2877,.3419,.51,.6061,.7325,.871l-.0011-.0041Z"/><path class="cls-1" d="M226.0166,84.5962l-1.7582,.3096-.0514-.3382,3.3503-1.3274,.1912,.3166c-.3036,.2377-.6072,.4753-.9042,.7117-.2716,.1084-.5497,.218-.8277,.3276Z"/><path class="cls-1" d="M147.8494,21.0899c-1.3857,.7361-2.6451,1.4051-3.9764,2.1123,.484-1.096,3.0217-2.4858,3.9764-2.1123Z"/><path class="cls-1" d="M226.0166,84.5962c.2781-.1096,.5562-.2192,.8277-.3276,.2628-.0267,.5322-.0546,.9197-.0948-.3244,.8309-.5282,1.6543-1.611,1.3634-.6111-.1642-.592-.5533-.1364-.9409Z"/><path class="cls-1" d="M57.4064,104.448c-.0549,1.1987-1.4347,2.0359-2.4885,1.5548l2.4885-1.5548Z"/><path class="cls-1" d="M133.9,25.1701l3.5969-1.2536c-.5469,1.0926-1.7253,1.5756-3.5969,1.2536Z"/><path class="cls-1" d="M116.7209,115.4087l-4.0274,.6993-.0755-.4215,4.0405-.6303,.0624,.3525Z"/><path class="cls-1" d="M274.174,170.6653h3.6677c-1.3149,1.2779-2.5042,.2432-3.6677,0Z"/><path class="cls-1" d="M225.0071,72.2898l2.9362-1.2631,.1874,.4597-3.0001,1.1201-.1235-.3168Z"/><path class="cls-1" d="M93.1631,156.8541c1.1784-.4445,2.1784-.8217,3.1958-1.2054-.1739,1.0333-1.1765,1.4362-3.1958,1.2054Z"/><path class="cls-1" d="M220.9365,85.6826l2.8472-1.0879,.1693,.4529-2.8928,1.0261-.1236-.3911Z"/><path class="cls-1" d="M221.4558,48.1704l1.6165-1.7663c-.0941,.7863-.0375,1.3746-.276,1.7964-.0987,.1746-.8295-.0073-1.3405-.0301Z"/><path class="cls-1" d="M188.0173,23.0784l3.5456-1.2943,.1133,.3456-3.5682,1.2213-.0908-.2726Z"/><path class="cls-1" d="M275.1854,169.5666h-2.7913l-.0031-.323h2.7851l.0094,.323Z"/><path class="cls-1" d="M111.9662,95.5203l1.8842-.5541,.1597,.5855-1.9408,.4156-.1031-.447Z"/><path class="cls-1" d="M178.4232,121.2248l-1.8249,1.3875c-.0839-1.1063,.1847-1.3265,1.8249-1.3875Z"/><path class="cls-1" d="M278.0074,56.9985l-.8197,1.7487-.4742-.2235c.2728-.5914,.5457-1.1829,.8185-1.7743l.4754,.2491Z"/><path class="cls-1" d="M96.9005,154.2778l2.2657,.226c-.5023,.9709-.5489,.9709-2.2657-.226Z"/><path class="cls-1" d="M118.6601,173.5437l-.9409,1.2705-.4747-.2937,.7562-1.3794,.6594,.4026Z"/></svg>