<?xml version="1.0" encoding="UTF-8"?><svg id="Layer_1" xmlns="http://www.w3.org/2000/svg" width="1200" height="800" viewBox="0 0 1200 800"><path d="M1198.74,336.46c-2.36-5.69-7.91-10.39-14.09-10.06-11.99,.65-23.53,3.55-34.79,7.53-2.65-2.55-6-4.22-9.52-4.29-2.67-6.5-9-11.25-17.75-9.18-32.94,7.77-65.69,16.35-98.28,25.54,4.09-6.29,8.16-12.6,12.17-18.94,16-25.27,31.26-51.06,45.12-77.73,2.49-4.8,2.58-9.53,1.14-13.55,1.76-6.22-1-13.87-5.65-17.56-6.2-4.91-14.64-4.51-20.31,1.28-2.99,3.05-5.96,6.13-8.93,9.2,2.09-13.5-15.92-24.61-26.68-13.72-6.58,6.66-13.08,13.42-19.53,20.23,2.93-4.99,5.86-9.98,8.75-14.99,3.23-5.6,2.5-12.8-1-17.93,5.57-9.75,11.03-19.58,16.34-29.49,8.48-15.83-12.14-33.98-24.3-19.89-44.82,51.91-85,107.96-122.95,165.66-8.77,2.65-17.51,5.41-26.22,8.24,1.62-3.73,2.13-8.05,1.17-11.73-2.42-9.36-10.79-12.92-19.1-11.51-7.38,1.26-14.77,2.51-22.15,3.76-.05-.15-.09-.3-.14-.44,14.34-4.62,28.5-9.79,42.33-15.97,7.13-3.19,12.37-9.27,11.12-18.08-1.07-7.57-7.43-14.9-15.25-14.29-3.82,.3-7.64,.63-11.46,.97,.78-2.94,.89-6.06,.17-8.86-2.41-9.33-10.8-12.97-19.1-11.51-5.24,.92-10.49,1.84-15.73,2.77,6.3-2.74,10.18-10.33,9.18-17.4-1.03-7.3-7.49-15.27-15.25-14.29-15.16,1.91-30.27,4.13-45.35,6.59-1.45-8.91-8.81-16.64-18.89-13.02-17.79,6.39-35.58,12.78-53.37,19.17,29.98-13.33,60.35-25.73,90.73-37.81,7.85-3.12,13.21-11.14,10.85-20.27-2.14-8.26-11.11-14.32-19.1-11.51-44.16,15.54-88.33,31.08-132.17,47.62,6.82-10.7,13.72-21.35,20.68-31.96,1.88-1.04,3.76-2.08,5.64-3.12,11.29-6.28,22.53-12.66,33.67-19.23,12.1-7.13,26.1-13.85,29.94-29.31,2.61-10.5-4.84-20.65-14.98-20.86-2.29-.05-4.58,0-6.86,.08-.16-.34-.32-.69-.5-1.03-2.03-3.68-5.53-6.36-9.42-7.53-.73-.71-1.52-1.34-2.35-1.85-8.02-4.98-16.11-1.16-21.25,5.91-2.75,3.79-5.48,7.6-8.2,11.41-.14,.1-.28,.19-.42,.29-.31,.08-.61,.16-.92,.25,1.52-2.34,3.02-4.69,4.51-7.04,4.26-6.75,1.84-16.63-4-21.26-6.38-5.06-14.49-4.33-20.39,1.29-10.8,10.27-21.52,20.62-32.21,31.01-.33-1.11-.76-2.19-1.33-3.21-.24-.44-.51-.86-.78-1.26,3.78-1.93,7.56-3.86,11.35-5.78,15.65-7.97,4.5-36.97-11.97-30.12-10.52,4.38-20.99,8.89-31.4,13.53-.48-9.93-8.82-20.08-19.51-16.18-8.52,3.11-16.93,6.45-25.25,9.99,7.45-9.88,14.73-19.91,21.75-30.15,8.66-12.62-7.65-30.71-19.89-23.46-.12-.14-.24-.29-.37-.43-5.29-5.62-12.37-5.48-18.82-2.58-9.9,4.46-19.67,9.17-29.34,14.09-2.35-8.07-10.72-13.79-19.07-11.33-55.93,16.47-109.2,40.79-160.2,69.81,5.06-7.12,10.15-14.22,15.25-21.32,5.52-7.7,11.2-15.27,16.92-22.81,6.07-7.99,13.42-16.08,18.51-24.9,9-9.53-4.98-28.36-15.81-19.66-4.84,3.89-9.18,8.56-13.33,13.42-.61-1.07-1.35-2.09-2.24-3.04-5.66-6.01-16.38-6.69-21.96,0-2.31,2.77-4.58,5.57-6.84,8.38-1.01-3.46-2.97-6.62-5.48-8.61-6.18-4.9-14.75-4.58-20.39,1.29-8.74,9.1-17.21,18.46-25.4,28.06-1.09-1.37-2.37-2.57-3.82-3.47-7.88-4.89-16.27-1.29-21.25,5.91-51.29,74.17-92.33,155.96-122.19,242.31-1.09,3.14-2.16,6.29-3.21,9.45-2.86,.06-5.63,1.23-7.69,3.91-7.87,10.25-13.56,20.96-15.02,34.23-1.3,11.74-.06,23.8,3.55,34.99,4.82,14.97,25.66,16.33,29.95,0,7.09-26.98,15.29-53.6,24.57-79.76,1.95-1.31,3.63-3.25,4.84-5.92,2.68-5.94,5.4-11.85,8.16-17.75,5.46,1.09,11.49-.92,15.68-7.56,6.45-10.22,13.04-20.31,19.77-30.31,1.49,3.52,4.33,6.51,7.7,7.66,7.54,2.57,14.73,1.39,21.58-1.48-3.39,3.17-6.76,6.36-10.07,9.62-6.16,6.05-5.77,17.18,0,23.31,4.17,4.42,9.42,5.47,14.38,4.13-.42,.75-.78,1.52-1.09,2.31-13.72,3.38-27.12,8.19-39.57,14.69-6.61,3.45-15.44,12.18-7.68,19.73,3.41,3.32,8.69,3.66,12.99,4.31,5.77,.87,11.55,1.63,17.35,2.24,2.81,9.27,13.27,16.5,22.85,10.34,2.42-1.56,4.84-3.11,7.26-4.67,.28,.21,.56,.42,.85,.6,4.54,2.82,9.24,2.8,13.36,.92,1.15,.63,2.34,1.04,3.55,1.3-5.09,.66-10.18,1.35-15.26,2.07-33.65,4.78-67.12,10.84-100.22,18.9-15.33,3.73-14.12,27.27,0,31.68,26.06,8.15,53.51,5.04,80.14,2.66,1.31-.12,2.61-.25,3.92-.37-19.24,4.97-38.34,10.5-57.26,16.72-10.31,3.39-16.17,19.11-6.84,27.47,11.83,10.61,25.05,10.14,39.6,8.34,2.5-.31,4.99-.65,7.49-.97-3.4,2.57-5.78,6.38-6.3,11.1-.67,5.97,1.78,13.68,7.4,16.4,11.51,5.56,22.76,5.94,34.83,4.98-.54,3.06-.29,6.28,.73,9.23-8.7,1.1-17.39,2.24-26.08,3.39-1.48-1.29-2.94-2.59-4.42-3.87-1.2-3.58-4.08-6.38-7.67-7.98-3.57-2.69-7.28-5.13-10.85-7.84-.96-.72-1.88-1.49-2.8-2.26-.24-.2-.49-.41-.73-.61-3-2.55-5.91-5.23-9.1-7.53-6.33-4.57-15.7-1.91-20.03,4.24-4.15,5.89-4.98,16.56,1.21,21.64,7.91,6.49,15.75,13.08,23.53,19.76-.16,.94-.25,1.91-.25,2.94,0,.47,.03,.93,.07,1.39-3.29,.85-6.57,1.72-9.85,2.61-1.1-.82-2.2-1.65-3.31-2.46-18.09-13.2-37.21-24.19-57.57-32.91-14.91-6.39-25.47,16.76-15.11,27.55,10.74,11.18,22.64,20.87,34.89,30.06-3.12-1.55-6.25-3.07-9.42-4.51-12.05-5.5-24.37-9.39-36.63-1.98-1.13,.68-2.11,1.51-2.99,2.43-15.13-8.42-30.64-16.09-46.43-22.96-14.04-6.11-26.48,17.21-14.94,27.24,4.16,3.62,8.36,7.19,12.57,10.74,.99,3.97,3.25,7.51,6.91,9.28,3.6,1.74,7.2,3.51,10.8,5.27,26.42,21.28,53.68,41.34,81.37,60.74,21.81,15.29,43.71,30.48,65.75,45.43,8.65,10.06,17.66,19.74,27.38,28.57,5.12,4.65,12.21,5.88,17.82,1.52,1.13,.74,2.26,1.48,3.4,2.22,22.16,14.38,44.68,28.15,67.79,40.75,7.9,4.31,19.86,.75,22.78-8.32,4.41,2.2,8.9,4.22,13.49,6.03,12.3,4.84,25.26-12.76,17.54-24.21-8.46-12.54-19.06-22.79-30.3-32.31,3.52,.92,7.09,1.58,10.69,1.9,6.05,.53,14.05-5.45,14.98-12.1,.44-3.14,.52-6.07,.33-8.87,15.48-1.35,30.96-2.84,46.42-4.38,26.39-2.61,52.78-5.25,79.16-7.89,12.94-.84,25.88-1.68,38.83-2.52-.18,3.01,.43,6.1,2.03,9,4.12,7.47,14.15,10.72,21.25,5.91,9.07-6.14,18.2-12.19,27.36-18.17,15.93-1.02,31.86-2.05,47.8-3.07-15.85,13.88-31.1,28.51-45.49,44.08-11.93,12.92,3.76,36.65,18.74,25.94-8.21,7.61-16.38,15.27-24.5,23-5.7,5.43-5.78,15.56-1.21,21.64,2.18,2.91,5.65,5.23,9.35,6.19-3.66,3.56-7.33,7.11-10.97,10.71-6.13,6.08-5.79,17.17,0,23.31,6.48,6.87,15.39,5.58,21.96,0,62.45-52.98,124.95-106.04,185.07-161.98,24.88-19.75,49.99-39.16,75.23-58.38,2.79-2.12,5.59-4.22,8.38-6.34,3.83,1.64,8.2,1.86,11.81-.29-4.42,9.14-8.66,18.38-12.67,27.74-3.46,8.06-2.17,17.67,5.55,22.46,6.86,4.26,17.41,2.07,21.17-5.89,6.89-14.58,13.78-29.17,20.67-43.75,4.13-8.03,8.4-15.97,12.77-23.85,75.14-44.37,152.79-83.8,227.82-128.41,21.85-12.99,44.78-26.08,61.19-46.68,4.06-5.09,5.84-11.47,3.19-17.88Zm-578.95,23.35c.42,.58,.9,1.12,1.41,1.63-.85,.38-1.7,.76-2.55,1.14,.47-.88,.84-1.81,1.14-2.77Zm-21.62,11.96c-.19,.09-.39,.18-.58,.26,.02-.05,.03-.11,.05-.16,.18-.04,.36-.07,.54-.1Zm62.63,143.3c-4.97,3.11-9.93,6.26-14.86,9.44-.6-6.97-5.05-13.48-13.38-14.48,5.22-4.47,6.61-12.68,4.2-19.31,.76-.26,1.52-.53,2.28-.79,7.31-2.54,14.61-5.13,21.9-7.74-2.03,1.82-4.01,3.72-5.89,5.75-7.82,8.46-4.76,23.26,5.76,27.14Zm-26.19,75.38c1.62-2.43,2.58-5.39,2.62-8.84,39.6-23.49,79.93-45.59,120.93-66.22-6.26,4.24-12.5,8.46-18.65,12.72-33.99,23.51-67.9,47.14-100.35,72.99-.19-3.85-1.66-7.66-4.55-10.65Zm-42.15-122.29c-3.14,3.1-4.53,7.25-4.49,11.4-10.35-.2-20.7-.31-31.05-.34,14.38-5.91,28.73-11.9,43.06-17.93-2.58,2.2-5.09,4.48-7.52,6.87Zm31.87-132.92c-3.21,1.71-5.41,4.76-6.59,8.26-2.54-4.04-6.68-6.79-12.22-6.39-7.33,.53-14.65,1.11-21.96,1.75,2.99-1.94,5.94-3.91,8.88-5.84,20.96-4.04,41.94-8.18,62.94-12.24-10.51,4.29-20.88,9.05-31.05,14.46Zm-362.7-106.79c-7.83,5.29-15.59,10.7-23.31,16.16,10.23-8.81,20.49-17.59,30.8-26.31-2.51,3.38-5.01,6.76-7.49,10.15Zm496.91,122.84c-15.82,5.81-31.7,11.43-47.61,16.98,3.12-1.28,6.24-2.55,9.35-3.84,10.69-4.46,21.35-9.01,31.95-13.71,4.53-.77,9.05-1.54,13.58-2.31-2.42,.96-4.85,1.92-7.27,2.89Zm-443.35-83.39c-11.05,11.52-21.8,23.36-32.2,35.54-5.99,.78-11.98,1.52-17.99,2.18,16.38-13.1,33.14-25.65,50.19-37.73Zm-142.42,39.26c-3.29-.34-9.06-.17-11.87-2.41-9.79-7.83,13.66-16.35,17.09-17.79,6.96-2.92,14.05-5.46,21.25-7.61,1.16-.35,2.32-.66,3.48-.99-.2,2.79,.32,5.66,1.68,8.42-4.55,3.89-9.04,7.85-13.42,11.96-2.98,2.8-4.42,6.13-4.71,9.51-1.15-.07-2.3-.11-3.45-.2-3.35-.24-6.71-.54-10.05-.89Zm76.56,11.26c1.04-.87,2.08-1.72,3.13-2.58,7.55-.25,15.1-.57,22.65-.92-.34,1.05-.58,2.13-.72,3.22-10.02,1.05-20.03,2.19-30.03,3.42,1.74-.79,3.42-1.85,4.97-3.14Z"/></svg>