<?xml version="1.0" encoding="UTF-8"?><svg id="test_Image" xmlns="http://www.w3.org/2000/svg" width="1200" height="800" viewBox="0 0 1200 800"><path d="M1034.2,60.76h1.77c-.2-.26-.4-.52-.6-.78l-1.16,.78Z"/><path d="M1196.59,149.5h0c-.33-.81-3.14-1.57-4.11-1.06-4.49,2.36-4.6,.57-3.95-3.25,.79-4.62-4.61-12.8-9.01-14.49-2.79,2.29-2.55,8.42-8.35,6.27-1.18,2.09-2.33,4.12-3.67,6.48-3.72-2.5-5.82-4.97-5.63-9.19,.06-1.5-1.43-3.06-2.21-4.6-1.04,1.28-2.34,2.42-3.08,3.85-3.12,6.02-3.92,13.51-12.44,16.5,1.16-3.59,2.31-7.19,3.64-11.31,0-3.2-.4-7.46,.13-11.61,.38-2.98,1.19-7.17,3.27-8.39,3.92-2.3,3.81-5.58,3.92-8.72,.19-5.79-.49-11.61-.46-17.41,.01-2.49,.36-5.26,1.51-7.39,1.43-2.65,.84-4.13-1.31-5.65-3.96-2.8-7.38-5.99-8.11-11.14-.07-.49-.99-.86-1.38-1.18-1.13,.86-2.53,2.41-2.99,2.18-1.72-.88-3.2-2.27-4.63-3.61-2.52-2.35-4.89-4.86-7.42-7.2-.8-.74-1.85-1.29-2.89-1.69-1.58-.61-3.73-1.87-4.74-1.29-1.23,.7-1.81,2.95-2.12,4.63-.21,1.12,.52,2.42,.82,3.62-6.86,1.71-1.98-10.14-9.48-7.18-1.37-4.67-2.75-9.35-4.13-14.03l-1.57,.42c.35,6.37,.69,12.73,1.04,19.1l-.48,.05c-1.84-7.4-3.68-14.8-5.53-22.2l-1.33,.24-1.24,2.46c-2.41-.16-4.68-.32-5.99-.41-4.42-7.78-8.59-15.11-12.75-22.44l-1.38,.52c-.36,1.55-.72,3.11-1.42,6.17-3.37-1.68-6.15-3.11-8.96-4.46-3.83-1.84-7.63-3.75-11.57-5.34-.88-.36-2.26,.48-3.41,.77l.09,.98c2.13,.79,4.27,1.57,6.85,2.52-1.34,.66-2.15,1.06-3.25,1.6,2.13,1.67,3.92,3.06,5.7,4.46l-.78,1.27c-3.24-1.42-8.64-2.24-9.25-4.4-1.19-4.21-4.68-3.24-6.55-5.28,8.03,11.53,9.82,24.86,12.83,37.79-8.72-11.76-10.51-28.1-25.66-35.49,.98,3.99,1.71,7.55-2.28,10.25-.75,.51-1.18,2.36-.9,3.35,1.75,6.21,3.72,12.37,5.68,18.53,.8,2.52,1.78,4.98,2.74,7.67h-2.44c2.43,3.14,4.9,6.25,7.19,9.48,.64,.9,.61,2.25,.9,3.39-1.21-.22-2.91-.02-3.55-.73-5.7-6.43-13.23-10.73-19.36-16.71-7.05-6.86-14.83-13.03-22.57-19.15-7.44-5.87-15.56-10.91-22.74-17.05-3.31-2.83-5.19-2.87-7.92-.22,2.18,2.32,4.07,4.59,6.22,6.57,1.44,1.32,3.25,2.26,4.92,3.33,.93,.6,2.1,.94,2.81,1.71,2.02,2.2,3.62,4.82,5.83,6.79,3.9,3.46,8.13,6.56,12.22,9.81l-1.36,1.59c-7.58-7.82-18.26-11.34-25.98-19.01-.58-.57-1.98-.66-2.91-.5-1.95,.34-3.85,1.01-6.05,1.62,5.13,4.77,10.4,9.69,15.68,14.6-8.33-4.65-16-9.95-23.45-15.54-9.19-6.89-17.23-15.51-28.81-18.74-1.31-.36-2.9,.27-4.37,.45,2.52,2.73,5.63,3.8,7.53,5.94,1.95,2.19,2.73,5.41,4.51,9.24-4.46-2.45-8.74-4.81-13.02-7.17-.26,1.33-.14,1.9,.22,2.2,3.88,3.21,8.64,5.53,9.07,11.7,.07,.98,1.28,6.48,5.93,4.35,.07-.03,.95,1.07,.91,1.6-.04,.49-.87,1.36-1.25,1.3-1.24-.18-2.65-.41-3.6-1.14-6.63-5.06-13.08-10.35-19.75-15.35-6.29-4.72-12.77-9.18-19.17-13.76l-2.14,2.37c4,2.82,7.99,5.64,11.99,8.46l-1.26,1.42c-6.49,.37-9-6.36-14.09-8.34-5.1-1.98-10.47-3.3-15.72-4.9,1.61,2.7,3.76,4.02,5.53,5.72,1.19,1.14,1.85,2.82,2.74,4.26-1.97-.37-3.95-.67-5.89-1.15-1.26-.31-2.46-.88-3.69-1.34l-.45,1.47,2.76,.7c-1.86,4.96-.05,9.29,4.41,11.15,3.09,1.29,3.94,3.4,2.54,6.33-10.53-6.76-17.48-18.32-29.76-22.88-.67,.7-1.34,1.41-2.01,2.11,3.41,2.19,6.81,4.38,10.22,6.58l-1.32,1.5c-2.84-.74-5.68-1.49-8.52-2.23l-1.4,1.67c1.67,2.4,3.34,4.81,4.87,7.02-1,.84-2.32,1.94-3.63,3.04,1.12,1.22,2.23,2.44,3.36,3.65,1.25,1.33,2.51,2.64,4.13,4.33-1.53,.81-2.58,1.37-3.72,1.97,27.25,23.55,52.62,47.48,73.88,75.3l-1.36,1.44c-13.67-13.22-27.34-26.45-41.02-39.67l-.97,.94c1.35,1.76,2.7,3.53,4.07,5.29,1.17,1.51,2.45,2.95,3.52,4.52,1.02,1.51,1.84,3.16,2.73,4.74-5.75-1.42-10.45-2.58-15.16-3.74l-.71,1.58c12.59,18.79,30.22,33.3,44.37,50.93l-4.15-2.5c1.08,2.3,2.59,3.92,4.16,5.48,7.18,7.18,14.41,14.32,21.52,21.57,.84,.86,3.51,2.79-.56,3.11-1.17,1.61-2.35,3.22-3.53,4.84l-2.9-2.08,2.31-.83-.1-.72c-1.88,.2-3.76,.41-6.04,.66-.4-1.82-.82-3.68-1.53-6.89,4.21,1.86,7.48,3.31,10.75,4.75-4-3.16-8.23-6.09-11.91-9.59-1.67-1.59-1.74-4.85-3.43-6.41-4.45-4.1-8.95-8.52-14.26-11.24-5.58-2.86-12.02-4.9-18.26-5.49-10.68-1.02-21.51-.95-32.25-.7-4.96,.11-11.16-1.75-13.64,5.16-1.96-2.15-3.61-3.95-5.42-5.94,5.17-2.98,10.51-5.86,15.64-9.07,4.36-2.72,3.52-11.51-1.14-13.68-6.45-3.01-6.66-3.78-2.33-9.63l-8.43-2.62-.41-1.89c5.56-3.49,11.11-6.99,16.67-10.48l.05-1.7c-4.2-1.01-8.37-2.19-12.62-2.97-3.85-.7-7.78-.96-12.27-1.48,2.42-2.81,4.13-4.81,5.84-6.79-2.05-1.39-2.47-4.5-1.26-9.33-1.71-.35-3.41-.78-5.13-1.04-3.1-.47-6.22-.88-9.34-1.18-.29-.03-.6,.97-1.03,1.35-2.24,1.97-4.52,3.89-6.79,5.83-.51-.57-1.03-1.15-1.54-1.72,1.36-.59,2.72-1.18,4.08-1.77l-1.04-1.38c-2.04,.66-4.09,1.31-6.53,2.09-.23-7.76,7.87-.98,9.05-5.42-.7-1.48-2.07-3.03-1.81-4.21,.28-1.24,2.13-2.14,3.63-3.47-1.84-1.17-3.41-2.17-5.11-3.26,3.94-1.14,7.81-2.26,13.28-3.85-2.23-1.83-3.35-2.74-4.13-3.38-1.2,1.52-1.9,3.31-2.93,3.52-1.45,.29-3.92-.05-4.61-1.04-3.09-4.45-7.69-4.82-12.9-5.88,1.19,1.79,1.96,2.93,2.88,4.31-2.75,.41-5.08,.97-7.41,1.01-.91,.02-1.84-1.14-2.75-1.76,.73-.73,1.35-1.69,2.22-2.16,2.11-1.13,4.34-2.03,6.13-2.84-2.65-.59-5.03-1.19-7.44-1.62-.81-.14-1.82-.09-2.53,.26-6.1,3.01-12.48,5.6-16.26,11.82-.59,.98-2.86,2.11-3.45,1.75-5.16-3.2-6.96,1.72-10.07,3.66-3,1.87-6.24,3.35-9.44,4.9-5.57,2.69-13.02,3.98-16.21,8.34-2.59,3.54-4.93,5.68-8.65,7.61l-.24-3.29c-5.69,2.49-10.94,4.82-16.21,7.1-8.51,3.69-17.28,6.87-25.46,11.16-7.6,3.99-14.83,7.9-23.72,9.08-10.47,1.39-20.72,4.46-31.01,7.04-27.72,6.95-55.4,14.05-83.11,21.04-3.48,.88-7.03,1.47-11.35,2.36,1.73-3.12,3.03-5.46,4.32-7.79,1.94-1.32,3.54-3,5.13-4.7,1.37-1.46,2.52-3.21,4.12-4.36,4.85-3.48,9.83-6.88,14.89-10.35,6.11-3.01,12.01-6.38,17.31-10.8h0l-1.02-1.98-10.99,5.72c2.37-1.84,4.75-3.69,7.11-5.53l-.74-.33c.42-1.02,.71-2.28,1.47-2.67,5.77-3,11.7-5.67,17.5-8.61,3.72-1.88,7.3-4.03,11.77-6.52l-4.28-.92c4.52-1.77,7.56-7.55,12.42-1.99-4.31,2.95-8.63,5.9-12.94,8.85-6.27,2.14-11.65,6.62-13.67,11.97,7.64-2.57,13.13-7.19,18.35-12.2,.1-.1-.21-.61-.33-.93,11.62-6.75,23.17-13.63,34.93-20.12,2.2-1.21,5.26-.86,7.92-1.3,1.56-.26,3.1-.66,4.66-.96,4.62-.89,8.5-4.36,13.83-3.15,2.17,.49,5.81-.28,7.01-1.82,1.82-2.34,2.9-3.34,5.71-1.92,.81,.41,2.62,.06,3.23-.61,.9-.98,1.62-2.59,1.54-3.87-.1-1.69-1.05-3.33-2.02-6.09,.22,.09-1.02-.41-2.8-1.13,1.48-.5,2.41-.81,3.72-1.26l-2.66-2.33,2.56-1.57c-1.21-1.56-2.4-3.08-3.93-5.06-.88,1.04-1.78,2.1-1.72,2.04-5.55-.74-10.41-1.38-15.26-2.03l.21-1.75h20.25c-4.51-2.67-8.29-4.91-12.39-7.35,3.1-.47,5.6-.84,8.09-1.22-3.28-3.86,2.67-2.8,2.94-4.82h-12.67l3.07-5.74c2.04,4.55,3.81,5.13,8.4,2.57l-3.93-.68c1.69-3.25,1.34-4.66-2.33-3.42-.77-1.17-1.77-3.45-2.26-3.35-4.32,.91-6.71-2.24-9.65-4.07-1.52,1.32-2.98,2.6-4.45,3.87,.6,.2,1.2,.4,1.79,.61-8.89-.12-17.87-2.17-25.22,5-.6,.59-3.5,.16-3.63-.28-1.14-3.9-3.02-.74-4.27-.4-1.36,.37-2.5,1.54-3.71,2.39-2.79,1.94-5.61,3.86-8.34,5.89-.87,.65-1.34,1.89-2.25,2.4-3.47,1.97-7.02,3.82-10.62,5.55-.97,.47-2.23,.37-4.22,.67,1.95-2.29,3.12-3.66,4.84-5.68-11.05,.81-15.17,3.59-13.56,8.74-3.93-1.34-6.94-1.24-6.88,3.98,0,.57-1.6,1.37-2.58,1.7-4.67,1.55-9.58,2.56-14.02,4.59-3.71,1.7-6.87,2.21-10.83-.28,1.55-1.38,2.77-2.46,3.98-3.54-1.88-.74-3.26-.54-4.53-.05-3.32,1.29-6.59,2.71-9.87,4.07,1.02,1.16,2.04,2.31,3.35,3.79-6.91,.92-9.41,10.56-17.99,8.34,.14-1.79,.29-3.62,.44-5.52,1.28-.73,2.74-1.56,4.19-2.4-5.01,1.14-10.02,2.28-15.03,3.42l.3,1.35,3.54,1.19c-3.93,1.73-7.14,3.02-10.23,4.54-2.88,1.41-5.65,3.07-8.46,4.61l.73,1.17c1.48-.77,2.96-1.53,4.58-2.38l.5,2.55c2.09-.92,4.03-1.77,5.96-2.62l.47,.97c-6.23,3.69-12.45,7.38-18.68,11.07l-.47-.69c1.15-.88,2.3-1.76,3.55-2.71l-2.88-2.22c-3.25,1.09-6.03,1.77-8.58,2.93-4.46,2.04-7.65-1.22-11.3-2.36-13.36-4.16-26.66-8.53-40.01-12.71-8.24-2.58-16.5-5.08-24.81-7.43-7.29-2.06-14.71-3.69-21.99-5.8-7.01-2.04-13.83-4.74-20.88-6.64-10.05-2.71-20.25-4.92-30.36-7.41-21.64-5.31-43.17-11.34-66.88-9.81,2.11,2.37,3.67,4.11,6.06,6.79-6.88-1.47-12.59-2.69-19.47-4.16,5.15,8.19,13.15,8.29,19.51,11.56-4.47-.53-8.78-1.57-13.1-2.59-6.32-1.49-6.7-1.24-7.94,5.26,3.41,1.04,6.84,2.08,11.59,3.52-2.17,.25-3.01,.54-3.78,.41-3.83-.7-7.58-1.7-5.43,4.69,.36,1.06-1.22,3.58-2.5,4.2-4.01,1.94-8.27,3.06-12.87,1.47-.96-.33-2.37,.61-4.47,1.22,2.35,2.47,4.01,4.21,6.58,6.9-5.87-1.33-8.01,1.06-8.7,5.51l3.59,2.9c-1.19,1.44-2.25,2.73-3.26,3.96,1.36,1.25,2.57,2.36,4.25,3.9-7.2,2.66-13.72,5.07-20.24,7.48l-.63-1.45c4.49-2.3,8.99-4.59,13.48-6.89l-.79-1.85c-2.8,.61-5.61,1.23-8.41,1.84l-.5-1.09c2.37-1.53,4.74-3.06,7.11-4.58l-.75-1.16c-5.41,1.69-11.02,2.93-16.17,5.19-4.94,2.17-10.2,3.16-15.18,5.95-4.9,2.75-11.43,6.74-18.51,5.19-.38-.08-1.14,1.56-1.73,2.4-.27,.39-.53,.77-.82,1.18-1.38-.54-2.61-1.02-4.17-1.63-.28,1.63-.49,2.9-.57,3.39-18.02,6.08-35.42,11.96-52.83,17.83l-.64-1.64c11.55-4.53,23.1-9.06,35.29-13.85-8.75-3.92-14.92-2.8-16.41,1.13-4.32,.69-7.77,1.23-11.21,1.8-3.95,.66-7.9,1.35-11.84,2.02l-.33-1.28c7.58-3,15.15-6,22.73-9l-.43-1.11c-5.28,1.47-10.56,2.94-15.84,4.41l-.22-.77c1.42-1.24,2.83-2.49,4.25-3.73-5.17,.42-9.74,1.47-14.27,2.66-7.37,1.93-13.93,7.25-22.27,5.2-.42-.1-.96,.39-1.46,.51-20.89,5.01-41.77,10.06-62.69,14.95-5.21,1.22-10.56,1.88-14.33,2.54-1.66,3.03-2.81,4.91-3.73,6.88-.91,1.93-1.59,3.97-2.5,6.3,3.17,.26,5.05,.42,7,.58-2.04,1.64-3.93,3.15-5.93,4.75,6.53,7.57,13.99,5.97,21.52,4.29-2.95,2-5.89,3.99-8.84,5.99l.33,.82c5.39-.66,10.78-1.32,16.52-2.03-.18,4.06,2.31,4.43,5.72,4.02,6.15-.74,12.32-1.38,18.5-1.61,1.42-.05,2.91,1.75,4.37,2.7l-.97,1.48-4.32-1.1c-.88,1.58-1.68,3.02-2.48,4.45l-.94-1.3c-3.64,1.99-8.37,3.15-10.69,6.14-4.57,5.89-10.27,8.74-15.45,9.57-1.93,4.98-3.49,8.98-5.05,13,1.47,.54,2.66,.98,3.88,1.43-2.06,4.15,1.14,7.32,9.6,9.52-3.76,6.3-.87,10.83,6.89,11.42,2.06,.15,4.01,1.72,5.37,2.34-.67,5.12-8.36,8.35-.92,12.98,.08,.05-.14,.64-.27,.95-2.06,5.08,1.1,7.12,5.35,8.5-1.21,1.49-2.28,2.8-4.17,5.12,4.55,.81,8.28,1.47,12.85,2.27-1.71,1.73-3.13,3.1-4.46,4.55-1.14,1.25-3.26,2.76-3.08,3.87,.99,6.17-5.88,7.34-7.65,12.34-1.79,5.03-8.89,8.25-13.72,12.19-4.42,3.61-8.91,7.12-13.46,10.75,5.48,6.1-5.41,8.44-3.05,13.93,1.73-.34,3.3-.64,6.09-1.19-2.34,3.15-3.95,5.31-5.95,8.01,2.92,1.82,5.59,3.49,8.08,5.04-.96,1.39-1.94,2.82-2.92,4.24l.98,.87c2.25-1.68,4.49-3.37,6.74-5.05,2.92-2.18,4.73-2.76,5.36,2.08,.21,1.6,3.21,3.39,5.28,4.09,3.19,1.08,6.73,1.15,10.02,2.02,.69,.18,1.39,1.97,1.35,2.99-.32,8.64-5.49,14.92-9.85,20.21,.25,2.61,.42,4.33,.62,6.4,7.04,1.4,10.25-6.06,16.56-7.57-.3,1.41-.47,2.18-.57,2.63,4.97-.43,10.02-.87,15.07-1.31,.06,.51,.24,1.18,.03,1.34-4.77,3.54-9.54,7.07-14.42,10.46-2.49,1.73-5.2,3.16-8.65,5.24h6.41l2.4-1.08,.22,.39-1.81,1.32c-.43,2.01-.86,4.01-1.23,5.68-1.91-.98-2.77-1.82-3.61-1.79-7.24,.25-10.85,4.5-12.21,11.18-.59-1.37-1.19-2.74-2.32-5.37-1.83,3.1-2.96,5.65-4.66,7.76-4.7,5.87-9.64,11.55-14.48,17.3-.61,.73-1.55,1.4-1.73,2.23-.74,3.47-1.25,6.99-1.68,9.49,1.45,.89,3.95,1.55,4.6,3.02,.97,2.2,.64,4.96,.87,7.48l1.13,1.23c-2.82,.91-5.66,1.74-8.43,2.78-.8,.3-1.37,1.18-2.05,1.79,.7,.71,1.29,1.66,2.14,2.07,.72,.35,1.75,.07,2.64,.07-2.28,1.38-4.68,1.41-7.03,1.81-1.24,.21-2.37,1.05-3.55,1.6,.73,1.01,1.3,2.71,2.22,2.93,6.44,1.49,4.76,8.15,7.5,12,2.1,2.95,2.43,7.33,5.79,10.28,3.17,2.78,5.91,6.19,8.24,9.71,4.51,6.81,8.67,13.85,12.79,20.91,.65,1.12,.92,3.11,.35,4.16-2.6,4.8-6.3,9.13-8.18,14.15-1.69,4.52-3.87,4.47-6.76,2.97-2.45,2.09-4.51,3.85-6.56,5.6l.62,1.51,8.95-2.35c2.42,4.69-.91,9.75-7.21,9.75-7.36,0-8.76,1.95-5.98,9.2-2.94,1.7-5.98,3.46-10.32,5.96-.83,3.35-3.04,7.51,.04,13.83,3.26,6.71,5.79,13.94,9.76,20.4,4.28,6.95,8.99,13.65,13.39,20.53,.84,1.32,1.1,3,2.07,5.75-2.26-1.38-3.04-2.18-3.91-2.31-1.12-.16-2.57,.72-3.45,.3-6.74-3.28-8.8-3.9-13.69-2.83-1.14,.25-2.09,1.39-3.13,2.12,.75,1.03,1.3,2.59,2.31,2.96,2.02,.74,4.35,.64,6.43,1.27,1.43,.43,2.66,1.5,4.76,2.74-4.83,2.52-8.11,4.23-12.85,6.71-2,2.09-1.45,6.23-1.02,10.49,.2,1.98-.64,4.07-1.01,6.11l-1.05-.12c-2.25-5.3-4.5-10.59-6.79-16-5.74,.55-6.47,2.15-3.71,7.1-.7,2.7-2.28,5.47-1.5,6.49,1.37,1.8,4.18,2.52,7.34,4.2-4.73,1.71-9.35,3.37-14.08,5.08,.11,1.9-.67,5.1,.59,6.81,2.43,3.27,6.02,5.69,9.89,9.14v-6.03c4.97-.28,8.02,1.28,9.86,5.95,3.09,7.86,7.01,9.35,14.67,7.21,1.63-.46,4.01,.53,5.66,1.49,9.59,5.58,19.29,11,28.5,17.15,10.12,6.75,19.78,14.17,29.58,21.39,2.04,1.5,3.77,3.41,5.77,5.25-7.35,4.65-14.31,8.87-21.08,13.37-11.87,7.9-23.83,15.68-35.33,24.08-7.18,5.24-13.56,11.54-20.36,17.3-5.16,4.38-7.56,13.7-4.99,19.86,6.59-5.1,11.8-3.06,13.85,5.38,2.87-.32,5.75-.63,8.24-.91,3.84,4.84-1.32,5.08-3.31,7.06,2.27,4.49,6.47,8.63,2.4,14.03-.31,.41,.41,2.17,1.08,2.55,.63,.35,2.05-.05,2.74-.6,2.04-1.64,3.88-3.51,6.47-5.92,.14,1.91,.13,2.58,.24,3.23,.26,1.56,.57,3.1,.86,4.65,1.12-1.24,2.22-2.51,3.37-3.72,1.97-2.06,4.13-5.94,5.93-5.79,5.63,.47,8.41-3.15,12.13-5.84,12.54-9.06,25.23-17.92,37.94-26.73,3.25-2.25,6.81-4.06,10.19-6.05,1.5,1.69,2.61,2.94,3.65,4.1,4.18-4.43,8.09-8.77,12.21-12.91,3.94-3.96,9.01-5.77,15.33-6.28,1.14,.86,3.08,2.32,5.01,3.78,5.66,4.31,11.25,8.7,17.04,12.84,1.09,.78,2.93,.71,4.42,.71,1.01,0,2.37-1.14,2.97-.79,1.73,1.02,3.16,2.55,5.34,4.43l-5.7-.46c.4,.93,.47,1.55,.82,1.82,6.46,5.1,12.78,10.42,19.55,15.09,2.48,1.71,7.49,3.54,8.88,2.39,3.52-2.9,4.78,.46,7.08,.84,3.82,.63,7.83,.17,11.76,.17v-1.47c-1.75-.27-3.5-.54-5.55-.86,.33-.9,.43-1.93,.77-2.01,4.6-1.11,9.32-3.17,13.84-2.83,5.38,.41,5.61-2.44,5.43-4.99-1.63-1.23-2.62-2.92-3.63-4.6-1-1.67-1.82-3.51-3.12-4.91-.88-.95-2.46-1.26-4.29-2.11,2.93-2.43,4.2-3.48,5.23-4.32,3.62,3.24,6.86,6.24,10.24,9.08,.62,.52,1.9,.73,2.68,.48,.52-.16,1.16-1.57,.95-2.11-1.79-4.56-3.59-9.14-5.76-13.52-1.42-2.86-3.48-5.42-5.59-8.62,3.28-.84,5.87-1.5,8.45-2.15-.88-6.14,.99-8.06,7.44-6.26,3.11,.87,5.67,3.59,8.54,5.38,1.32,.82,2.77,1.42,4.17,2.12,.17-1.5,.87-3.2,.4-4.46-1.69-4.56-3.78-8.99-5.71-13.46,5.37,4.42,10.49,8.93,14.22,14.38,4.44,6.47,10.36,9.11,16.63,10.08,1.14-3.52,1.47-6.93,3.27-9.22,1.09-1.39,4.44-1.06,7.68-1.68v-4.49c2.58,.89,4.58,1.93,6.69,2.22,2.59,.36,5.74,.91,7.73-.21,1.24-.7,.79-4.34,1.1-6.66l-.97-1.59c2.61-.1,5.22-.33,7.82-.28,2.42,.05,4.84,.39,7.25,.6l.5-1.87c-2.33-2.59-4.66-5.17-8.07-8.95h11.47l-2.41-7.49c7.2,.52,13.44,.96,19.68,1.41l.05,.96c-1.16,.55-2.32,1.11-4.66,2.22,3.51,.66,5.7,1.15,7.91,1.48,2.05,.3,4.38-.09,6.15,.74,5.46,2.55,10.38,3.56,15.52-.96,2.86-2.51,6.56-4.1,9.88-6.1-5.89,6.17-14.46,8.89-19.1,16.39,4.99-2.79,9.97-5.57,14.63-8.18,.97,1.71,1.92,3.38,2.88,5.07l-3.83,2.76c2.53,4.86-2.29,8.2-1.86,12.62,2-1.56,3.61-2.8,5.22-4.05l.57,.58c-1.68,3.32-3.36,6.65-4.97,9.84,4.11,3.87,9.62,3.38,16.52-1.46,5.77,1.19,10.74,2.21,17.53,3.61l-6.46,4.35c1.29,1.89,2.13,3.13,3.16,4.64,.33-4.96,3.91-3.42,6.19-3.37,6.12,.13,12.22,.95,18.34,1.08,9.39,.2,18.79,.05,29.92,.05-6.98,3.8-12.65,6.88-18.58,10.1,3.27,3.45,9.19-3.54,12.36,3-5.38,2.62-10.72,5.21-17.09,8.31,4.28,.77,7.71,1.38,11.31,2.03-2.91,7.66-4.01,12.47-3.31,14.42,3.25,1.82,6.48,2.54,7.06,4.17,1.62,4.57,5.09,5.33,8.62,6.19,.68-3.06,1.3-5.84,1.92-8.63l1.27,.4,1.98,4.3c1.44-1.98,2.88-3.95,4.19-5.76,3.65,1.4,7.12,2.73,10.43,4-.59,4.74-1.5,9.29-1.63,13.86-.13,4.55-.8,9.53,3.5,12.87,2.73-7.31,5.35-14.34,8.04-21.55-1.72-.38-3.38-.74-5.26-1.15,3.55-2.19,6.63-4.09,9.71-6-3.95-1.2-7.27-.94-10.51-1.33-1.24-.15-2.29-1.79-3.42-2.75,1.04-.91,1.93-2.23,3.14-2.66,3.53-1.24,7.19-2.11,10.8-3.13l-.37-1.68c-2.1,.19-4.26,.74-6.29,.45-1.53-.22-2.9-1.51-4.33-2.32,1.4-.84,2.71-1.92,4.21-2.46,1.8-.65,3.77-.86,5.67-1.25l-.34-1.11-2.95-.66c4.37-2.15,8.18-2.95,13.27-1.94,5.62,1.12,12.1-1.26,18.07-2.68,13.68-3.25,27.27-6.89,40.91-10.29,7.75-1.93,15.54-3.69,23.32-5.52l.45,1.44c-1.2,.57-2.35,1.34-3.61,1.66-4.87,1.25-9.96,1.91-14.63,3.66-4.3,1.61-9.79,1.44-11.98,7.2-.56,1.47-3.78,1.96-5.78,2.89l.58,1.32c4.11,.43,8.23,1.27,12.33,1.16,3.21-.08,6.4-1.31,9.59-2.07,7.13-1.7,14.35-3.14,21.37-5.23,7.05-2.1,13.81-5.18,20.87-7.24,5.69-1.66,11.69-2.21,17.45-3.64,5.01-1.25,9.8-3.44,14.84-4.48,6.08-1.26,12.31-1.76,18.48-2.59l.3,1.63c-2.4,1.15-4.79,2.3-8.05,3.87,7.91,2.98,16.42,.69,19.46-4.57,2.59,2.91,2.46,5.34-1.18,6.81-5.89,2.38-11.95,4.33-17.81,6.77-1.28,.53-2,2.35-2.99,3.58l1.01,1.04,45.54-10.31,.4,1.19c-5.36,2.08-10.72,4.16-16.79,6.52,6.58,2.03,11.63,3.64,16.71,5.11,1.09,.31,2.39,.36,3.49,.09,2.68-.65,5.3-1.58,7.95-2.35,18.31-5.35,36.57-10.92,54.98-15.9,6.43-1.74,13.26-2.01,19.91-2.92,.47-.06,1.03,.06,1.48,.26,3.98,1.8,7.82,2.55,12.48,2.14,8.01-.7,16.17,.2,24.26,.47,.39,.01,.77,.35,1.76,.83-1.89,.43-3.11,.71-4.33,.99,2.9,.6,5.84,1.13,8.46,.44,2.37-.63,4.32-2.69,6.59-3.86,.31-.16,1.42,1.18,2.78,2.38-2.43,.38-3.82,.6-5.21,.82l.08,1.22c14.36,.32,28.73,.64,43.09,.95v2.57h-20.5c.34,1.52,.85,1.99,1.38,2.01,9.17,.45,18.36,.56,27.5,1.33,15.52,1.31,31,3.1,46.51,4.51,1.31,.12,2.73-1.09,3.21-1.3,1.27,.66,2.03,1.35,2.87,1.45,11.73,1.48,23.48,2.81,35.2,4.32,9.22,1.18,18.42,2.5,27.61,3.85,6.85,1.01,14.13,4.19,20.39,2.79,8.55-1.91,15.78,1.62,23.64,1.98,6.93,.32,13.81,1.78,20.71,2.74l.28-1.24-12.62-2.61,.12-.91c10.79,.57,21.57,1.13,32.36,1.7l.18-1.41c-10.69-2.5-21.37-4.99-32.06-7.49l.23-1.11c11.18,1.71,22.37,3.43,33.55,5.14l.32-1.31c-6.66-2.03-13.33-4.06-19.99-6.09l.28-1.31c7.4,1.8,14.84,2.74,22.3,2.79l.19-1.75c-3.38-1-6.76-1.99-10.15-2.99l.19-1.54c14.24-.7,28.49-1.4,42.73-2.11l.03-1.12h-16.54l-.2-1.69c.97-.16,1.95-.5,2.92-.46,1.67,.07,3.33,.63,4.98,.54,5.51-.3,11-.76,16.5-1.22,5.33-.45,10.94-.12,15.88-1.75,3.56-1.17,6.45-3.47,9.47-1.26,3.95-3.81,7.55-7.28,12.18-11.74-5.02-1.24-9.79-2.42-14.28-3.53,1.92-1.2,4.2-2.62,6.98-4.36l-5.66-2.83c-3.38,.85-6.06,1.53-9.23,2.32,1.04-3.26,1.69-5.29,2.33-7.32-4.84,3.19-21.22,2.6-27.58-1.39,.6-.82,1.03-1.89,1.82-2.4,4.02-2.58,4.32-5.45,1.06-8.86-2.35-2.46-4.61-5-6.6-7.18,2.27-1.84,3.9-3.15,5.52-4.46l-.6-1.71c-11.97-1.78-23.89-4.66-35.92-5.12-22.86-.87-45.78-.35-68.67-.47-1.24,0-2.47-.61-2.5-.62,7.9-1.42,16.59-2.9,25.26-4.56,4.17-.8,8.27-1.98,12.43-2.86,8.28-1.74,16.59-3.37,24.87-5.1,5.85-1.22,11.68-2.54,17.53-3.79,3.18-.68,6.45-1.08,9.53-2.04,2.94-.92,6.15-3.97,8.46-3.33,5.53,1.54,9.55-1.91,14-3.07,8.95-2.32,17.44-6.39,26.09-9.81,1.92-.76,4.77-1.44,5.37-2.89,2.12-5.13,6.86-7.33,10.4-11.74-6.98,1.53-13.96,3.05-22.36,4.89,3.3-2.14,5.22-3.39,7.14-4.63l-.56-.92c-7.71,1.97-15.43,3.94-23.14,5.91,5.41-3.06,11.17-4.88,16.85-6.92,5.27-1.89,10.46-4.01,15.69-6.02l-.7-2.3c-11.08,1.36-22.15,2.72-34.38,4.22,8.82-3.35,16.64-6.32,25.31-9.62-9.56,.43-18.05,.89-26.56,1.18-6.3,.21-12.56-.73-18.65,2.69-1.94,1.09-6.1-1.03-7.14-4.53,8.79-1.88,17.24-3.69,25.68-5.49l-.11-.95c-4.4-.55-8.8-1.1-13.67-1.71-2.93,3.35-7.57,1.38-12.11,1.36,1.4-5.92,5.35-4.44,9-4.51-3.02-.84-6.04-1.04-9.02-.78-2.99,.26-5.94,.97-8.91,1.49l-.29-1.39c6.28-1.57,12.55-3.14,18.83-4.71l-.32-1.5c-12.95,1.61-25.9,3.23-38.85,4.84l-.02-.4c2.2-.71,4.4-1.43,6.61-2.14l-.1-.86c-1.25-.24-2.5-.48-3.68-.7l.93-1.17c-4.21-1.23-8.37-3.11-12.66-3.47-2.71-.22-5.64,1.75-8.39,2.93-.93,.4-1.6,1.39-3.36,2.99l1.4-4.34c-3.08,.77-5.39,1.34-8.93,2.22,33.25-101.36,66.27-201.99,99.48-303.23,1.48,1.9,2.24,2.89,3,3.87,.97-1.42,1.93-2.83,3.28-4.8-2.51-.2-4.04-.33-6.75-.55,4.31-4.64,1.44-12.13,8.97-13.96-1.11-1.3-2.08-2.42-3.71-4.33l5.63,1.33,.48-1.22c-1.36-.99-2.71-1.97-4.18-3.04,1.47-4.94,2.92-9.81,4.21-14.13,1.97,1.66,3.46,2.91,5.32,4.48,1.75-6.41-1.5-12.94,5.06-16.28-4.09-5.34,2.46-3.44,4.08-5.44-1.36-.42-2.34-.72-3.32-1.02,5.51,1.53-3.64-8.84,4.53-5.14,.69-1.86,1.65-3.73,2.08-5.7,2.35-10.9,4.44-21.86,6.88-32.74,1.3-5.8,3.42-11.43,4.66-17.24,1.38-6.43-.59-12.59-2.95-18.51ZM608.48,75.85c-6.06,3.19-11.57,6.09-17.4,9.16,2.12-4.75,13.22-10.78,17.4-9.16ZM96.25,318.3c.46,0,1-.09,1.37-.34,3.77-2.53,7.51-5.1,11.3-7.68,.92,6.23-4.13,8.9-7.75,12.01h0c-3.78,3.24-8.39,5.52-13.02,8.47,1.95-2.69,2.19-4.8-1.81-4.69,1.35-5.89,3.75-7.76,9.9-7.76Zm-31.84,46.78c1.22,.18,2.33,.34,3.45,.51l.22,1.43c-3.53,.63-7.07,1.27-11.7,2.1,6.06-8.81,14.4-14.17,22.96-20.13l.56,3.11c5.01-3.44,9.77-6.71,14.54-9.99l.88,.98c-5.62,5.23-11.25,10.47-16.87,15.7l-1.33-1.27,1.35-2.59c-7.83,1.38-9.67,2.69-14.06,10.15Zm137.42,78.95l10.89-6.74c-.24,5.2-6.28,8.83-10.89,6.74Zm30.33-356.31c7.53-4.43,15.38-8.04,24.02-9.62-6.92,6.03-15.86,6.81-24.02,9.62Zm97.9,587.85h0c-2.51-2.12-4.13-6.7-3.98-10.1,.19-4.38,4.55-7.68,9.42-8.2-2.07,2.45-3.32,3.99-4.64,5.47-3.15,3.53-2.81,6.38,1.44,8.32,2.66,1.22,5.63,1.77,8.81,2.73-3.78,3.02-8.25,4.13-11.04,1.77Zm39.13-11.05c5.16-1.93,9.53-3.56,13.98-5.23-.76,4.48-5.15,6.23-13.98,5.23Zm16.35-11.17c4.26,.42,7.07,.7,9.91,.98-2.2,4.21-2.4,4.21-9.91-.98Zm86.69-168.76c-.69,.19-1.39,.39-2.07,.59-5.17,.89-10.34,1.78-15.51,2.67l-.33-1.83,15.23-2.35,.02,.12,2.45-.42,.22,1.23Zm-12.52-88.41h0c.23,.85,.47,1.69,.7,2.54l-8.49,1.8-.45-1.94c2.75-.8,5.5-1.6,8.24-2.4Zm-44.39,116.43l-1.1-1.8c13.59-10.87,28.81-18.52,45.74-22.84l.35,.67c-8.2,3.3-15.94,7.53-23.21,12.68-7.26,3.76-14.52,7.53-21.78,11.29Zm17.75,120.27h0l-1.41-2.5c5.48-2.96,10.95-5.92,16.43-8.88l.92,1.66c4.66-2.79,9.32-5.59,13.98-8.38l.14,.25c-10.02,5.95-20.05,11.9-30.07,17.86Zm43.57,109.52h0c-.69-.42-1.38-.85-2.08-1.27l3.31-5.98,2.89,1.75c-1.37,1.84-2.74,3.67-4.12,5.51ZM557.34,113.14c-1.29,1.08-2.57,2.16-3.86,3.24h0l-1.24-.19c1.16-1.57,2.32-3.14,3.92-5.3l-6.85,2.02-.64-1.55c4.07-5.66,11.34-4.28,17.61-5.72-1.28,1.08-2.56,2.15-3.84,3.23l-6.14,3.2c.33,.3,.69,.7,1.05,1.08Zm12.21-13.52h0c-1.23,.41-2.35,1.14-3.53,1.73l-.7-1.26c5.74-3.12,11.49-6.24,17.36-9.43,1.25,1.48,2.22,2.62,3.19,3.76-5.45,1.72-10.9,3.42-16.33,5.2Zm-6.38-11.51c-2.39,4.74-7.55,6.83-15.74,5.44,6.18-2.13,11-3.8,15.74-5.44Zm-13.98-32.26h0c1.64-.82,2.73-5.6,5.43-.64,.31,.58,4.33-.82,6.63-1.31,.23-.05,.47-.07,.71-.12l-6.93,2.94-3.99,2.3-.11,1.37c-2.28,.74-3.48-.57-4.33-3.02,.85-.51,1.69-1.08,2.6-1.53Zm-34.86,26.54l-.89-1.26c4.02-5.26,8.03-10.53,12.11-15.87l-5.44,1.01c6.23-6.16,14.81-4.29,22.14-6.9-1.94,3.71-3.49,7.1-8.67,7.3h0c-5.16,.2-6.1,6.02-9.41,8.79-3.07,2.56-6.55,4.63-9.85,6.92Zm67.5,0c.36,.69,.72,1.37,1.07,2.06-10.28,8.49-22.69,13.29-34.67,18.78-.39,.18-1.61-1.39-2.51-2.21,12.2-6.29,24.16-12.46,36.11-18.63Zm152.44,433.66c-.37-4.8,.81-5.75,7.99-6.02-3.35,2.53-5.5,4.14-7.99,6.02Zm28.26-446.37c-4.33,3.01-8.66,6.01-14.01,9.73,.78-6.05,5.43-9.3,14.01-9.73Zm-9.99,431.87c6.4-3.88,11.83-7.18,18.11-10.98-.52,5.18-11.91,11.71-18.11,10.98Zm32.1-415.89h0l-.4-1.18c5.17-1.87,10.34-3.74,15.51-5.61l.5,1.5-15.61,5.3Zm153,99.96h0c-.04,.3-.05,.56-.08,.85l-.74,.12,.31,4.5c-.11,.7-.28,1.34-.54,1.91l-3.17,.58c-.95-.12-1.97-.26-2.85-.3,2.43-2.63,4.29-4.64,7.07-7.66Zm-9.3,170.46l4.8-1.7-.09-.24c.45-.17,.89-.34,1.34-.51l.02,.16,6.86-1.21,.1,.27c-.18,.18-.34,.36-.48,.54-4.02,1.41-8.04,2.83-12.06,4.24-.17-.52-.33-1.03-.49-1.55Zm9.26,134.61c0-2.18-.18-4.48,.09-6.72,0-.06,.04-.12,.05-.18,1.72-.86,2.93-1.83,3.67-3.06,3.24-1.12,6.54-2.11,9.86-3.16,.55,8.07-1.85,10.26-13.66,13.12Zm.96-17.1c5.79-2.94,6.07-11.88,14.57-9.54-1.73,4.73-8.16,9.24-14.57,9.54Zm12.56-118.28c-2.67-.71-2.59-2.4-.6-4.08l-1.81,.32c.1-.27,.2-.53,.31-.8-1.61,.17-2.74,.28-3.83,.4-.8,.32-1.61,.64-2.43,.96h0c.81-.32,1.63-.64,2.43-.96,.87-.69,1.76-1.39,2.65-2.08,3.15-1.23,6.29-2.47,9.44-3.7l.84,1.37c-1.33,1.03-2.66,2.06-3.99,3.09,1.18-.12,2.36-.24,4.05-.42-1.42,3.6-2.31,7.17-7.05,5.91Zm-.6-57.5l-.63-1.55,9.07-3.87c.27,.66,.55,1.33,.82,1.99-3.09,1.14-6.17,2.28-9.26,3.42Zm7.17-95.15c-5.47-5.98-10.46-11.44-15.44-16.89,1.37-.25,2.58-.47,3.56-.64-.15-2.19-.3-4.35-.45-6.54,2.22-.37,3.96-.65,5.64-.93,6.38,6.91,12.72,13.78,20.03,21.71-4.81,.79-9.13,2.35-13.34,3.3Zm219.61,521.76c-5.75,5.54-10.96,1.05-16.05,0h16.05Zm-11.66-6.16l.04,1.4h-12.21v-1.4h12.17Zm-135.71-212.96c4.62-1.8,9.24-3.6,13.86-5.41l.76,1.89c-5,1.79-10,3.59-15,5.38,.13-.62,.26-1.25,.39-1.87Zm90.96-327.45h0c1.5-1.54,3.02-3.06,4.48-4.64,.99-1.07,1.88-2.23,3.54-4.23-.52,4.4-.31,7.47-1.38,10-.72,1.68-3.12,3.11-5.06,3.67-1.1,.32-2.78-1.34-4.21-2.11,.88-.9,1.75-1.79,2.63-2.69Zm-55.53,232.63l2.21,.88c-2.95,8.36-5.9,16.72-8.86,25.08,1.4,3.18,.49,5.18-2.92,6.28-2.71,.87-5.31,2.09-7.96,3.15l-.7-1.24h0c1.28-.79,2.56-1.57,4.26-2.63-1.75,.08-3.11,.14-4.46,.21l-.77-1.51c2.88-1.42,5.75-2.84,8.63-4.26l-3.62-.29c4.93-8.92,9.56-17.29,14.19-25.66Zm-36.38,165.02c-2.73-1.32-5.64-2.29-7.88-4.08-.61-.48,.81-3.45,1.32-5.36,6.45,2.6,7.4,4.04,6.56,9.44Zm.53-20.34c-7.71-.52-15.45-.75-24.21-1.14,1.74-1.61,2.65-2.45,3.86-3.56-1.39-.75-2.27-1.62-2.86-2.56,3.62,.16,7.14,.33,10.65,.57,3.03,.21,3.9-1.01,4.46-3.81,2.22-10.99,4.77-21.91,7.17-32.86,.18-.82,.34-1.65,.51-2.47,4.54-1.7,9.09-3.4,13.63-5.11l1.4,1.29c-.79,3.83-1.55,7.67-2.39,11.49h0c-2.52,11.4-5.2,22.76-7.53,34.19-.6,2.92-1.5,4.18-4.69,3.97Zm113.62-238.23h0c-9.5,30.67-19.79,61.1-29.77,91.62-8.4,25.7-16.95,51.34-25.25,77.07-7.85,24.35-15.33,48.81-23.21,73.14-2.99,9.24-6.67,18.26-10.04,27.39l-1.08-.38c6.6-21.74,13.14-43.5,19.83-65.22,6.71-21.8,13.42-43.6,20.39-65.31,6.83-21.25,14.25-42.32,20.93-63.62,6.43-20.49,13.68-40.71,20.08-61.2,6.75-21.64,14.06-43.11,20.66-64.79,6.47-21.27,12.36-42.71,18.51-64.07l1.62,.25c-.55,3.63-.69,7.38-1.71,10.88-10.2,34.78-20.23,69.61-30.95,104.24Zm31.32-77.8l-2.07-.97c1.19-2.56,2.39-5.13,3.58-7.69l2.08,1.08c-1.2,2.53-2.39,5.05-3.59,7.58Z"/><polygon points="28.79 247.53 28.8 247.52 28.79 247.52 28.79 247.53"/><path d="M27.33,244.55c-8.05,7.28-16.1,14.55-24.16,21.83l.91,1.01c3.58-3.56,9.81-3.69,11.85-9.39,.34-.94,2.25-1.82,3.47-1.87,4.14-.17,9.11-4.53,9.38-8.6-.24,.16-.47,.33-.73,.46-.03,.01-.27-.22-.25-.3,.18-.74,.39-1.46,.6-2.19l-1.08-.94Z"/><path d="M23.22,645.54h0c.47-.12,.74-.98,1.73-2.44-3.01-3.86-5.92-7.9-9.21-11.6-.8-.89-2.87-.68-4.36-.97-.11,1.88-1.07,4.46-.18,5.52,2.84,3.39,6.32,6.27,9.66,9.23,.5,.44,1.63,.45,2.36,.26Z"/><path d="M574.16,37.09h0c5.1-2.24,10.21-4.48,16.59-7.27-2.62-.17-3.84-.25-6.67-.43,4.39-2,7.34-3.35,10.29-4.7l-.65-1.25c-6.1,2.23-12.19,4.47-18.29,6.7l.23,1.24c1.49,.07,2.97,.15,4.36,.21-2.15,1.34-4.36,2.71-6.56,4.08l.7,1.42Z"/><polygon points="28.79 247.52 28.8 247.52 28.8 247.52 28.79 247.52"/><path d="M28.8,247.52l3.29,1.62c-2.51,2.65-4.68,4.93-6.85,7.22h0l.63,.61c6.93-6.17,13.86-12.33,20.8-18.5-2.79,.82-5.1,2.46-7.57,3.82-3.37,1.86-6.86,3.5-10.29,5.23Z"/><path d="M10.78,580.21c.04,.67,.97,1.89,1.42,1.84,2.13-.2,4.73-.15,6.19-1.35,1.08-.89,.64-3.56,.94-5.86-3.53,1.7-5.42,2.51-7.19,3.52-.63,.36-1.39,1.24-1.35,1.84Z"/><path d="M43.45,237.25l16.23-8.44-.89-1.46c-5.38,2.82-10.77,5.63-16.15,8.45l.8,1.45Z"/><polygon points="58.8 227.35 58.8 227.35 58.8 227.35 58.8 227.35"/><polygon points="850.02 735.89 850.12 737.16 867.14 737.16 867.13 735.89 850.02 735.89"/><path d="M441.42,757.19c3.84-.18,6.68-.31,10.26-.47-3.71-4.5-5.69-4.41-10.26,.47Z"/><path d="M1094.76,586.33h0c5.14-1.32,10.28-2.63,15.43-3.95l-.26-1.03c-5.2,.99-10.39,1.97-15.59,2.96l.42,2.01Z"/><path d="M1141.64,62.97h0c.23-5.04-4.93-4.44-7.95-6.07,2.13,2.55,4.26,5.1,6.39,7.65l1.55-1.58Z"/><path d="M562.49,126.63l1.18,.18,12.18-10.32c-5.96,1.38-12.89,.06-16.76,5.5l.61,1.49,6.53-1.95-3.73,5.09h0Z"/><path d="M594.52,105.71c-.92-1.1-1.85-2.2-3.04-3.61l-16.53,9.06,.67,1.21c1.12-.56,2.18-1.27,3.36-1.66,5.17-1.72,10.36-3.34,15.55-5Z"/><path d="M594.53,105.71h0v0Z"/><path d="M599.47,96.68c5.55-2.95,10.79-5.73,16.57-8.8-3.98-1.56-14.55,4.23-16.57,8.8Z"/></svg>