<svg xmlns="http://www.w3.org/2000/svg" width="202" height="52" viewBox="0 0 202 52">
  <g>
    <path d="M139,12.4994a12.5,12.5,0,1,0,0,20.0012V35h5V10h-5ZM131.5,30a7.5,7.5,0,1,1,7.5-7.5A7.5085,7.5085,0,0,1,131.5,30Z"/>
    <polygon points="156.5 0 146.5 1.5 146.5 6 151.5 6 151.5 30 146.5 30 146.5 35 151.5 35 156.5 35 161.5 35 161.5 30 156.5 30 156.5 0"/>
    <polygon points="174 0 164 1.5 164 6.5 169 6.5 169 30 164 30 164 35 169 35 174 35 179 35 179 30 174 30 174 0"/>
    <polygon points="196.528 10 189.264 26.344 182 10 176.528 10 186.528 32.5 180.973 45 186.444 45 202 10 196.528 10"/>
  </g>
  <g>
    <polygon points="25 27.199 5.572 0 0 0 0 35 5 35 5 7.801 24.428 35 30 35 30 0 25 0 25 27.199"/>
    <path d="M52.5,12.4994a12.5,12.5,0,1,0,0,20.0012V35h5V10h-5ZM45,30a7.5,7.5,0,1,1,7.5-7.5A7.5085,7.5085,0,0,1,45,30Z"/>
    <polygon points="70 0 65 0 65 10 60 10 60 15 65 15 65 35 70 35 70 15 75 15 75 10 70 10 70 0"/>
    <path d="M97.5,22.5a7.5,7.5,0,0,1-15,0V10h-5V22.5a12.4936,12.4936,0,0,0,20,9.9936V35h5V10h-5Z"/>
    <path d="M118.5,10a12.4345,12.4345,0,0,0-7.5,2.5064V10h-5V35h5V22.5a7.5085,7.5085,0,0,1,7.5-7.5Z"/>
  </g>
  <g>
    <path d="M7.3647,49.75H2.46l-.81,2.0693H0L3.9746,41.8154H5.85L9.8242,51.8193h-1.65Zm-4.47-1.335H6.93L4.9048,43.12Z"/>
    <path d="M16.6343,47.1846c0-1.2-.6148-1.59-1.5449-1.59a2.5888,2.5888,0,0,0-1.9952,1.05v5.1748h-1.35V44.5752h1.35v1.02a3.455,3.455,0,0,1,2.565-1.2,2.0822,2.0822,0,0,1,2.3252,2.34v5.0849h-1.35Z"/>
    <path d="M25.5293,41.8154h1.5V51.8193h-1.5Z"/>
    <path d="M34.874,47.1846c0-1.2-.6147-1.59-1.5449-1.59a2.5886,2.5886,0,0,0-1.9951,1.05v5.1748h-1.35V44.5752h1.35v1.02a3.4548,3.4548,0,0,1,2.5649-1.2,2.0822,2.0822,0,0,1,2.3252,2.34v5.0849h-1.35Z"/>
    <path d="M42.3589,44.3945A3.1646,3.1646,0,0,1,45.0737,45.67l-.9.8252a2.0234,2.0234,0,0,0-1.7549-.9,2.6173,2.6173,0,0,0,0,5.2051,2.0577,2.0577,0,0,0,1.7549-.9l.9.8252A3.1646,3.1646,0,0,1,42.3589,52a3.8045,3.8045,0,0,1,0-7.6055Z"/>
    <path d="M47.3091,41.8154h1.35V51.8193h-1.35Z"/>
    <path d="M56.4434,50.83a3.581,3.581,0,0,1-2.58,1.17,2.0438,2.0438,0,0,1-2.31-2.31V44.5752h1.35v4.6641c0,1.2.6,1.56,1.53,1.56a2.6184,2.6184,0,0,0,2.01-1.02V44.5752h1.35v7.2441h-1.35Z"/>
    <path d="M60.7031,49.8848a3.5107,3.5107,0,0,0,2.43,1.0351c1.02,0,1.56-.42,1.56-1.0351,0-.72-.8252-.96-1.7549-1.17-1.23-.2851-2.67-.6152-2.67-2.1748,0-1.1552.99-2.1455,2.76-2.1455a3.8763,3.8763,0,0,1,2.76,1.0352l-.6.9453a2.8243,2.8243,0,0,0-2.1445-.8848c-.9151,0-1.4854.3594-1.4854.9444,0,.63.78.84,1.68,1.05,1.26.2851,2.76.63,2.76,2.2949,0,1.2451-1.02,2.2207-2.9248,2.2207a4.121,4.121,0,0,1-3.0146-1.125Z"/>
    <path d="M68.2485,42.5049a.8806.8806,0,0,1,.87-.87.8712.8712,0,0,1,.87.87.8582.8582,0,0,1-.87.8555A.8674.8674,0,0,1,68.2485,42.5049Zm.21,2.07h1.35v7.2441h-1.35Z"/>
    <path d="M71.6382,44.5752h1.44L75.3428,50.26l2.2651-5.6846H79.063l-2.9854,7.2441H74.623Z"/>
    <path d="M84.0879,44.3945c2.1748,0,3.5249,1.6953,3.5249,3.9151v.33h-5.73a2.3759,2.3759,0,0,0,2.46,2.25,3.0777,3.0777,0,0,0,2.145-.8554l.63.8857A4.0737,4.0737,0,0,1,84.208,52a3.805,3.805,0,0,1-.12-7.6055Zm-2.22,3.27H86.293a2.1439,2.1439,0,0,0-2.2051-2.16A2.2185,2.2185,0,0,0,81.8682,47.665Z"/>
    <path d="M94.708,41.8154h6.72v1.3194h-5.22V46.06h5.1148v1.32H96.208v4.4394h-1.5Z"/>
    <path d="M103.7681,44.5752h1.35v1.1094a3.0782,3.0782,0,0,1,2.37-1.2744v1.3642a2.1684,2.1684,0,0,0-.4649-.0449,2.5627,2.5627,0,0,0-1.9052,1.05v5.04h-1.35Z"/>
    <path d="M114.0576,51.0244a3.106,3.106,0,0,1-2.37.9756,2.4077,2.4077,0,0,1-2.5195-2.4,2.3387,2.3387,0,0,1,2.5195-2.37,3.0233,3.0233,0,0,1,2.37.96V46.99c0-.9-.7348-1.44-1.77-1.44a2.9662,2.9662,0,0,0-2.1748.96l-.585-.93a4.0733,4.0733,0,0,1,2.97-1.1856c1.5752,0,2.91.6905,2.91,2.5352v4.89h-1.35Zm0-2.0244a2.2943,2.2943,0,0,0-1.86-.8252,1.4552,1.4552,0,1,0,0,2.88,2.2943,2.2943,0,0,0,1.86-.8252Z"/>
    <path d="M127.1226,46.99c0-.8408-.375-1.3955-1.26-1.3955a2.332,2.332,0,0,0-1.8,1.0352v5.1894h-1.35V46.99c0-.8408-.36-1.3955-1.2749-1.3955a2.369,2.369,0,0,0-1.77,1.05v5.1748h-1.35V44.5752h1.35v1.02a3.1363,3.1363,0,0,1,2.34-1.2,1.872,1.872,0,0,1,1.9649,1.3506,3.04,3.04,0,0,1,2.4448-1.3506c1.3349,0,2.0547.7354,2.0547,2.1905v5.2343h-1.35Z"/>
    <path d="M134.5474,44.3945c2.1748,0,3.5249,1.6953,3.5249,3.9151v.33h-5.73a2.3762,2.3762,0,0,0,2.46,2.25,3.0779,3.0779,0,0,0,2.1451-.8554l.63.8857a4.0733,4.0733,0,0,1-2.91,1.08,3.805,3.805,0,0,1-.12-7.6055Zm-2.22,3.27h4.4248a2.1438,2.1438,0,0,0-2.205-2.16A2.2186,2.2186,0,0,0,132.3276,47.665Z"/>
    <path d="M145.0176,46.2549l-1.7847,5.5644h-1.395l-2.28-7.2441h1.41l1.65,5.52,1.8149-5.52h1.17l1.815,5.52,1.65-5.52h1.41l-2.28,7.2441h-1.3951Z"/>
    <path d="M151.9785,48.19A3.6627,3.6627,0,1,1,155.6377,52,3.5955,3.5955,0,0,1,151.9785,48.19Zm5.9092,0a2.2729,2.2729,0,1,0-4.5,0,2.2749,2.2749,0,1,0,4.5,0Z"/>
    <path d="M161.7578,44.5752h1.35v1.1094a3.0792,3.0792,0,0,1,2.37-1.2744v1.3642a2.1667,2.1667,0,0,0-.4648-.0449,2.5637,2.5637,0,0,0-1.9053,1.05v5.04h-1.35Z"/>
    <path d="M170.0225,48.6992l-1.0948,1.11v2.01h-1.35V41.8154h1.35V48.25l3.4952-3.6748h1.6953l-3.12,3.2842,3.15,3.96h-1.71Z"/>
  </g>
</svg>
